<svg xmlns="http://www.w3.org/2000/svg" xmlns:xlink="http://www.w3.org/1999/xlink" width="1569" zoomAndPan="magnify" viewBox="0 0 1176.75 801.749998" height="1069" preserveAspectRatio="xMidYMid meet" version="1.0"><defs><g/><clipPath id="15cc41ef85"><rect x="0" width="324" y="0" height="210"/></clipPath><clipPath id="e04885ab41"><rect x="0" width="465" y="0" height="707"/></clipPath></defs><g transform="matrix(1, 0, 0, 1, 700, 322)"><g clip-path="url(#15cc41ef85)"><g fill="#F3EFE7" fill-opacity="1"><g transform="translate(0.978744, 131.983687)"><g><path d="M 43.734375 -44.671875 C 43.734375 -44.671875 43.59375 -44.953125 43.3125 -45.515625 C 43.039062 -46.085938 42.484375 -46.800781 41.640625 -47.65625 C 40.804688 -48.519531 39.582031 -49.367188 37.96875 -50.203125 C 36.351562 -51.046875 34.234375 -51.75 31.609375 -52.3125 C 28.992188 -52.882812 25.710938 -53.171875 21.765625 -53.171875 L 15.15625 -53.109375 L 15.15625 -9.625 C 15.15625 -8.789062 15.226562 -7.929688 15.375 -7.046875 C 15.53125 -6.160156 15.898438 -5.414062 16.484375 -4.8125 C 17.066406 -4.207031 17.988281 -3.90625 19.25 -3.90625 C 19.25 -3.90625 19.859375 -3.90625 21.078125 -3.90625 C 22.296875 -3.90625 24.414062 -3.90625 27.4375 -3.90625 C 30.457031 -3.90625 34.691406 -3.90625 40.140625 -3.90625 C 44.753906 -3.90625 48.601562 -4.1875 51.6875 -4.75 C 54.769531 -5.3125 57.265625 -6.007812 59.171875 -6.84375 C 61.078125 -7.6875 62.515625 -8.539062 63.484375 -9.40625 C 64.453125 -10.269531 65.101562 -10.984375 65.4375 -11.546875 C 65.769531 -12.109375 65.9375 -12.390625 65.9375 -12.390625 L 65.9375 0 L 2.578125 0 C 2.578125 0 2.816406 -0.09375 3.296875 -0.28125 C 3.785156 -0.46875 4.34375 -0.863281 4.96875 -1.46875 C 5.601562 -2.082031 6.160156 -3.039062 6.640625 -4.34375 C 7.117188 -5.644531 7.359375 -7.40625 7.359375 -9.625 L 7.359375 -80.59375 C 7.359375 -82.820312 7.117188 -84.570312 6.640625 -85.84375 C 6.160156 -87.125 5.601562 -88.078125 4.96875 -88.703125 C 4.34375 -89.335938 3.785156 -89.75 3.296875 -89.9375 C 2.816406 -90.132812 2.578125 -90.234375 2.578125 -90.234375 L 65.9375 -90.15625 L 65.9375 -77.765625 C 65.9375 -77.765625 65.769531 -78.046875 65.4375 -78.609375 C 65.101562 -79.179688 64.453125 -79.894531 63.484375 -80.75 C 62.515625 -81.613281 61.078125 -82.460938 59.171875 -83.296875 C 57.265625 -84.140625 54.769531 -84.84375 51.6875 -85.40625 C 48.601562 -85.976562 44.753906 -86.265625 40.140625 -86.265625 C 34.691406 -86.265625 30.457031 -86.265625 27.4375 -86.265625 C 24.414062 -86.265625 22.296875 -86.265625 21.078125 -86.265625 C 19.859375 -86.265625 19.25 -86.265625 19.25 -86.265625 C 17.863281 -86.265625 16.890625 -85.957031 16.328125 -85.34375 C 15.765625 -84.738281 15.425781 -83.992188 15.3125 -83.109375 C 15.207031 -82.234375 15.15625 -81.375 15.15625 -80.53125 L 15.15625 -55.125 L 21.765625 -55.125 C 25.710938 -55.125 28.992188 -55.40625 31.609375 -55.96875 C 34.234375 -56.53125 36.351562 -57.238281 37.96875 -58.09375 C 39.582031 -58.957031 40.804688 -59.804688 41.640625 -60.640625 C 42.484375 -61.484375 43.039062 -62.1875 43.3125 -62.75 C 43.59375 -63.320312 43.734375 -63.609375 43.734375 -63.609375 Z M 43.734375 -44.671875 "/></g></g><g transform="translate(69.559182, 131.983687)"><g><path d="M 15.15625 -34.234375 L 15.15625 -9.625 C 15.15625 -7.363281 15.40625 -5.59375 15.90625 -4.3125 C 16.414062 -3.03125 16.984375 -2.070312 17.609375 -1.4375 C 18.242188 -0.8125 18.800781 -0.414062 19.28125 -0.25 C 19.769531 -0.0820312 20.015625 0 20.015625 0 L 2.578125 0 C 2.578125 0 2.816406 -0.09375 3.296875 -0.28125 C 3.785156 -0.46875 4.34375 -0.863281 4.96875 -1.46875 C 5.601562 -2.082031 6.160156 -3.039062 6.640625 -4.34375 C 7.117188 -5.644531 7.359375 -7.40625 7.359375 -9.625 L 7.359375 -80.59375 C 7.359375 -82.820312 7.117188 -84.570312 6.640625 -85.84375 C 6.160156 -87.125 5.601562 -88.078125 4.96875 -88.703125 C 4.34375 -89.335938 3.785156 -89.75 3.296875 -89.9375 C 2.816406 -90.132812 2.578125 -90.234375 2.578125 -90.234375 L 20.015625 -90.234375 C 20.015625 -90.234375 19.769531 -90.144531 19.28125 -89.96875 C 18.800781 -89.800781 18.242188 -89.398438 17.609375 -88.765625 C 16.984375 -88.140625 16.414062 -87.175781 15.90625 -85.875 C 15.40625 -84.582031 15.15625 -82.800781 15.15625 -80.53125 L 15.15625 -36.5625 L 62.03125 -36.5625 L 62.03125 -80.59375 C 62.03125 -82.820312 61.789062 -84.570312 61.3125 -85.84375 C 60.832031 -87.125 60.265625 -88.078125 59.609375 -88.703125 C 58.960938 -89.335938 58.394531 -89.75 57.90625 -89.9375 C 57.425781 -90.132812 57.1875 -90.234375 57.1875 -90.234375 L 74.625 -90.234375 C 74.625 -90.234375 74.378906 -90.144531 73.890625 -89.96875 C 73.410156 -89.800781 72.851562 -89.398438 72.21875 -88.765625 C 71.59375 -88.140625 71.039062 -87.175781 70.5625 -85.875 C 70.082031 -84.582031 69.84375 -82.800781 69.84375 -80.53125 L 69.84375 -9.625 C 69.84375 -7.363281 70.082031 -5.59375 70.5625 -4.3125 C 71.039062 -3.03125 71.59375 -2.070312 72.21875 -1.4375 C 72.851562 -0.8125 73.410156 -0.414062 73.890625 -0.25 C 74.378906 -0.0820312 74.625 0 74.625 0 L 57.1875 0 C 57.1875 0 57.425781 -0.09375 57.90625 -0.28125 C 58.394531 -0.46875 58.960938 -0.863281 59.609375 -1.46875 C 60.265625 -2.082031 60.832031 -3.039062 61.3125 -4.34375 C 61.789062 -5.644531 62.03125 -7.40625 62.03125 -9.625 L 62.03125 -34.234375 Z M 15.15625 -34.234375 "/></g></g><g transform="translate(146.759363, 131.983687)"><g><path d="M 21.828125 -90.234375 C 21.828125 -90.234375 21.628906 -90.144531 21.234375 -89.96875 C 20.835938 -89.800781 20.488281 -89.398438 20.1875 -88.765625 C 19.894531 -88.140625 19.863281 -87.175781 20.09375 -85.875 C 20.332031 -84.582031 21.082031 -82.800781 22.34375 -80.53125 L 59.140625 -13.96875 L 59.140625 -80.59375 C 59.140625 -82.820312 58.898438 -84.570312 58.421875 -85.84375 C 57.941406 -87.125 57.375 -88.078125 56.71875 -88.703125 C 56.070312 -89.335938 55.503906 -89.75 55.015625 -89.9375 C 54.535156 -90.132812 54.296875 -90.234375 54.296875 -90.234375 L 67.578125 -90.234375 C 67.578125 -90.234375 67.332031 -90.144531 66.84375 -89.96875 C 66.363281 -89.800781 65.804688 -89.398438 65.171875 -88.765625 C 64.546875 -88.140625 63.984375 -87.175781 63.484375 -85.875 C 62.984375 -84.582031 62.734375 -82.800781 62.734375 -80.53125 L 62.734375 0 L 59.078125 0 L 14.53125 -80.59375 C 13.53125 -82.363281 12.546875 -83.851562 11.578125 -85.0625 C 11.410156 -84.476562 11.273438 -83.804688 11.171875 -83.046875 C 11.066406 -82.296875 11.015625 -81.457031 11.015625 -80.53125 L 11.015625 -9.625 C 11.015625 -7.363281 11.265625 -5.59375 11.765625 -4.3125 C 12.265625 -3.03125 12.828125 -2.070312 13.453125 -1.4375 C 14.085938 -0.8125 14.644531 -0.414062 15.125 -0.25 C 15.613281 -0.0820312 15.859375 0 15.859375 0 L 2.578125 0 C 2.578125 0 2.816406 -0.09375 3.296875 -0.28125 C 3.785156 -0.46875 4.34375 -0.863281 4.96875 -1.46875 C 5.601562 -2.082031 6.160156 -3.039062 6.640625 -4.34375 C 7.117188 -5.644531 7.359375 -7.40625 7.359375 -9.625 L 7.359375 -80.59375 C 7.359375 -82.820312 7.117188 -84.570312 6.640625 -85.84375 C 6.160156 -87.125 5.601562 -88.078125 4.96875 -88.703125 C 4.34375 -89.335938 3.785156 -89.75 3.296875 -89.9375 C 2.816406 -90.132812 2.578125 -90.234375 2.578125 -90.234375 Z M 21.828125 -90.234375 "/></g></g><g transform="translate(216.975666, 131.983687)"><g><path d="M 26.046875 -90.234375 C 32.929688 -90.234375 39.148438 -89.457031 44.703125 -87.90625 C 50.265625 -86.351562 55.140625 -84.171875 59.328125 -81.359375 C 63.523438 -78.546875 67.039062 -75.238281 69.875 -71.4375 C 72.707031 -67.644531 74.832031 -63.503906 76.25 -59.015625 C 77.675781 -54.523438 78.390625 -49.847656 78.390625 -44.984375 C 78.390625 -38.898438 77.269531 -33.140625 75.03125 -27.703125 C 72.789062 -22.273438 69.46875 -17.484375 65.0625 -13.328125 C 60.65625 -9.179688 55.191406 -5.921875 48.671875 -3.546875 C 42.148438 -1.179688 34.609375 0 26.046875 0 L 2.578125 0 C 2.578125 0 2.816406 -0.09375 3.296875 -0.28125 C 3.785156 -0.46875 4.34375 -0.863281 4.96875 -1.46875 C 5.601562 -2.082031 6.160156 -3.039062 6.640625 -4.34375 C 7.117188 -5.644531 7.359375 -7.40625 7.359375 -9.625 L 7.359375 -80.59375 C 7.359375 -82.820312 7.117188 -84.570312 6.640625 -85.84375 C 6.160156 -87.125 5.601562 -88.078125 4.96875 -88.703125 C 4.34375 -89.335938 3.785156 -89.75 3.296875 -89.9375 C 2.816406 -90.132812 2.578125 -90.234375 2.578125 -90.234375 C 2.578125 -90.234375 3.59375 -90.234375 5.625 -90.234375 C 7.664062 -90.234375 10.457031 -90.234375 14 -90.234375 C 17.539062 -90.234375 21.554688 -90.234375 26.046875 -90.234375 Z M 26.046875 -3.90625 C 32.546875 -3.90625 38.5 -4.816406 43.90625 -6.640625 C 49.320312 -8.460938 54.007812 -11.125 57.96875 -14.625 C 61.9375 -18.125 65.007812 -22.410156 67.1875 -27.484375 C 69.375 -32.566406 70.46875 -38.359375 70.46875 -44.859375 C 70.46875 -51.359375 69.3125 -57.15625 67 -62.25 C 64.695312 -67.351562 61.5 -71.675781 57.40625 -75.21875 C 53.320312 -78.757812 48.59375 -81.453125 43.21875 -83.296875 C 37.851562 -85.148438 32.128906 -86.078125 26.046875 -86.078125 L 19.75 -86.078125 C 19.414062 -86.078125 18.867188 -85.945312 18.109375 -85.6875 C 17.359375 -85.4375 16.675781 -84.921875 16.0625 -84.140625 C 15.457031 -83.367188 15.15625 -82.164062 15.15625 -80.53125 C 15.15625 -80.53125 15.15625 -80.445312 15.15625 -80.28125 C 15.15625 -80.113281 15.15625 -79.640625 15.15625 -78.859375 C 15.15625 -78.085938 15.15625 -76.789062 15.15625 -74.96875 C 15.15625 -73.144531 15.15625 -70.597656 15.15625 -67.328125 C 15.15625 -64.054688 15.15625 -59.847656 15.15625 -54.703125 C 15.15625 -49.566406 15.15625 -43.304688 15.15625 -35.921875 C 15.15625 -28.546875 15.15625 -19.78125 15.15625 -9.625 C 15.15625 -8.15625 15.382812 -7.019531 15.84375 -6.21875 C 16.3125 -5.425781 16.847656 -4.875 17.453125 -4.5625 C 18.066406 -4.25 18.601562 -4.0625 19.0625 -4 C 19.519531 -3.9375 19.75 -3.90625 19.75 -3.90625 Z M 26.046875 -3.90625 "/></g></g><g transform="translate(297.888, 131.983687)"><g><path d="M 2.578125 -90.234375 L 20.015625 -90.234375 C 20.015625 -90.234375 19.769531 -90.144531 19.28125 -89.96875 C 18.800781 -89.800781 18.242188 -89.398438 17.609375 -88.765625 C 16.984375 -88.140625 16.414062 -87.175781 15.90625 -85.875 C 15.40625 -84.582031 15.15625 -82.800781 15.15625 -80.53125 L 15.15625 -9.625 C 15.15625 -7.363281 15.40625 -5.59375 15.90625 -4.3125 C 16.414062 -3.03125 16.984375 -2.070312 17.609375 -1.4375 C 18.242188 -0.8125 18.800781 -0.414062 19.28125 -0.25 C 19.769531 -0.0820312 20.015625 0 20.015625 0 L 2.578125 0 C 2.578125 0 2.816406 -0.09375 3.296875 -0.28125 C 3.785156 -0.46875 4.34375 -0.863281 4.96875 -1.46875 C 5.601562 -2.082031 6.160156 -3.039062 6.640625 -4.34375 C 7.117188 -5.644531 7.359375 -7.40625 7.359375 -9.625 L 7.359375 -80.59375 C 7.359375 -82.820312 7.117188 -84.570312 6.640625 -85.84375 C 6.160156 -87.125 5.601562 -88.078125 4.96875 -88.703125 C 4.34375 -89.335938 3.785156 -89.75 3.296875 -89.9375 C 2.816406 -90.132812 2.578125 -90.234375 2.578125 -90.234375 Z M 2.578125 -90.234375 "/></g></g></g></g></g><g transform="matrix(1, 0, 0, 1, 267, 46)"><g clip-path="url(#e04885ab41)"><g fill="#F3EFE7" fill-opacity="1"><g transform="translate(40.318862, 410.86507)"><g><path d="M 313.1875 96.453125 C 299.820312 96.453125 287.960938 93.78125 277.609375 88.4375 C 267.253906 83.09375 259.148438 75.367188 253.296875 65.265625 C 247.453125 55.160156 244.53125 43.175781 244.53125 29.3125 C 244.53125 10.769531 250.582031 -10.691406 262.6875 -35.078125 C 274.800781 -59.460938 294.890625 -85.769531 322.953125 -114 L 318.703125 -117 C 302.328125 -102.132812 287 -87.519531 272.71875 -73.15625 C 258.4375 -58.789062 245.363281 -45.800781 233.5 -34.1875 C 221.644531 -22.582031 211.164062 -13.3125 202.0625 -6.375 C 192.957031 0.550781 185.316406 4.015625 179.140625 4.015625 C 176.640625 4.015625 175.390625 2.59375 175.390625 -0.25 C 175.390625 -6.425781 177.640625 -13.609375 182.140625 -21.796875 C 186.648438 -29.984375 192.707031 -38.796875 200.3125 -48.234375 C 207.914062 -57.671875 216.476562 -67.398438 226 -77.421875 C 235.519531 -87.441406 245.414062 -97.335938 255.6875 -107.109375 C 265.957031 -116.878906 275.9375 -126.109375 285.625 -134.796875 L 278.109375 -137.796875 C 266.578125 -128.441406 254.503906 -118.296875 241.890625 -107.359375 C 229.285156 -96.421875 216.175781 -85.394531 202.5625 -74.28125 C 188.945312 -63.175781 174.957031 -52.570312 160.59375 -42.46875 C 146.226562 -32.363281 131.613281 -23.300781 116.75 -15.28125 C 101.882812 -7.257812 86.8125 -0.957031 71.53125 3.625 C 56.25 8.21875 40.84375 10.515625 25.3125 10.515625 C 10.769531 10.515625 -1.003906 8.257812 -10.015625 3.75 C -19.035156 -0.75 -25.632812 -6.421875 -29.8125 -13.265625 C -33.988281 -20.117188 -36.078125 -26.972656 -36.078125 -33.828125 C -36.078125 -40.671875 -34.613281 -46.429688 -31.6875 -51.109375 C -28.769531 -55.785156 -25.179688 -59.289062 -20.921875 -61.625 C -16.660156 -63.96875 -12.609375 -65.140625 -8.765625 -65.140625 C -5.253906 -65.140625 -2.289062 -64.175781 0.125 -62.25 C 2.550781 -60.332031 3.765625 -57.367188 3.765625 -53.359375 C 3.765625 -49.359375 2.257812 -46.0625 -0.75 -43.46875 C -3.757812 -40.882812 -7.179688 -38.671875 -11.015625 -36.828125 C -14.859375 -34.992188 -18.285156 -33.113281 -21.296875 -31.1875 C -24.304688 -29.269531 -25.8125 -26.890625 -25.8125 -24.046875 C -25.8125 -18.703125 -24.015625 -14.109375 -20.421875 -10.265625 C -16.828125 -6.429688 -12.273438 -3.300781 -6.765625 -0.875 C -1.253906 1.539062 4.546875 3.289062 10.640625 4.375 C 16.742188 5.46875 22.300781 6.015625 27.3125 6.015625 C 45.019531 6.015625 62.472656 3.007812 79.671875 -3 C 96.878906 -9.019531 113.789062 -17.125 130.40625 -27.3125 C 147.03125 -37.5 163.441406 -48.9375 179.640625 -61.625 C 195.835938 -74.320312 211.785156 -87.351562 227.484375 -100.71875 C 243.191406 -114.082031 258.726562 -126.859375 274.09375 -139.046875 C 262.90625 -142.890625 250.878906 -145.851562 238.015625 -147.9375 C 225.160156 -150.03125 211.296875 -151.078125 196.421875 -151.078125 C 178.054688 -151.078125 160.3125 -148.738281 143.1875 -144.0625 C 126.0625 -139.382812 108.144531 -132.367188 89.4375 -123.015625 L 81.671875 -133.296875 C 99.046875 -140.972656 116.835938 -146.609375 135.046875 -150.203125 C 153.253906 -153.796875 171.457031 -155.59375 189.65625 -155.59375 C 206.53125 -155.59375 222.273438 -154.335938 236.890625 -151.828125 C 251.503906 -149.328125 264.910156 -145.90625 277.109375 -141.5625 C 288.628906 -150.582031 300.023438 -158.972656 311.296875 -166.734375 C 322.578125 -174.503906 333.8125 -181.144531 345 -186.65625 L 346 -184.40625 C 339.320312 -175.882812 332.140625 -167.15625 324.453125 -158.21875 C 316.773438 -149.28125 308.84375 -140.382812 300.65625 -131.53125 C 303.832031 -129.863281 306.835938 -128.191406 309.671875 -126.515625 C 312.515625 -124.847656 315.269531 -123.097656 317.9375 -121.265625 C 333.3125 -135.128906 349.554688 -148.65625 366.671875 -161.84375 C 383.796875 -175.039062 401.710938 -186.738281 420.421875 -196.9375 L 422.921875 -193.671875 C 405.710938 -177.472656 390.09375 -162.066406 376.0625 -147.453125 C 362.039062 -132.835938 349.347656 -118.929688 337.984375 -105.734375 C 349.847656 -95.210938 359.535156 -83.726562 367.046875 -71.28125 C 374.566406 -58.832031 380.160156 -46.050781 383.828125 -32.9375 C 387.503906 -19.832031 389.34375 -7.015625 389.34375 5.515625 C 389.34375 17.867188 387.671875 29.515625 384.328125 40.453125 C 380.992188 51.398438 376.066406 61.085938 369.546875 69.515625 C 363.035156 77.953125 355.0625 84.550781 345.625 89.3125 C 336.1875 94.070312 325.375 96.453125 313.1875 96.453125 Z M 325.203125 -116.25 C 337.066406 -127.945312 350.347656 -139.890625 365.046875 -152.078125 C 379.742188 -164.273438 396.113281 -176.632812 414.15625 -189.15625 L 413.40625 -189.65625 C 396.863281 -179.800781 380.867188 -168.816406 365.421875 -156.703125 C 349.972656 -144.597656 335.234375 -132.117188 321.203125 -119.265625 Z M 288.125 -137.296875 L 328.46875 -172.875 L 328.21875 -173.375 C 321.195312 -169.695312 313.71875 -165.019531 305.78125 -159.34375 C 297.851562 -153.664062 289.546875 -147.238281 280.859375 -140.0625 C 282.203125 -139.71875 283.457031 -139.296875 284.625 -138.796875 C 285.789062 -138.296875 286.957031 -137.796875 288.125 -137.296875 Z M 181.640625 0.25 C 186.816406 0.25 193.664062 -3.128906 202.1875 -9.890625 C 210.707031 -16.660156 220.644531 -25.804688 232 -37.328125 C 243.363281 -48.859375 256.101562 -61.722656 270.21875 -75.921875 C 284.332031 -90.117188 299.488281 -104.566406 315.6875 -119.265625 C 310.175781 -122.765625 304.414062 -126.019531 298.40625 -129.03125 C 287.207031 -116.664062 275.972656 -104.550781 264.703125 -92.6875 C 253.429688 -80.832031 242.738281 -69.644531 232.625 -59.125 C 222.519531 -48.601562 213.5 -39.207031 205.5625 -30.9375 C 197.632812 -22.675781 191.414062 -15.953125 186.90625 -10.765625 C 182.394531 -5.585938 180.140625 -2.332031 180.140625 -1 C 180.140625 -0.164062 180.640625 0.25 181.640625 0.25 Z M 313.9375 92.703125 C 329.300781 92.703125 342.367188 88.773438 353.140625 80.921875 C 363.921875 73.078125 372.109375 62.554688 377.703125 49.359375 C 383.296875 36.160156 386.09375 21.710938 386.09375 6.015625 C 386.09375 -6.347656 384.296875 -18.957031 380.703125 -31.8125 C 377.109375 -44.675781 371.632812 -57.242188 364.28125 -69.515625 C 356.9375 -81.796875 347.503906 -93.113281 335.984375 -103.46875 C 316.773438 -81.09375 301.320312 -60.71875 289.625 -42.34375 C 277.9375 -23.96875 269.460938 -7.640625 264.203125 6.640625 C 258.941406 20.921875 256.3125 33.40625 256.3125 44.09375 C 256.3125 55.113281 258.816406 64.210938 263.828125 71.390625 C 268.835938 78.578125 275.6875 83.925781 284.375 87.4375 C 293.0625 90.945312 302.914062 92.703125 313.9375 92.703125 Z M 313.9375 92.703125 "/></g></g></g></g></g></svg>