<svg xmlns="http://www.w3.org/2000/svg" xmlns:xlink="http://www.w3.org/1999/xlink" width="1920" zoomAndPan="magnify" viewBox="0 0 1440 809.999993" height="1080" preserveAspectRatio="xMidYMid meet" version="1.0"><defs><g/><clipPath id="bf25a55671"><rect x="0" width="161" y="0" height="143"/></clipPath><clipPath id="f4c9a4fba1"><rect x="0" width="337" y="0" height="516"/></clipPath><clipPath id="8f1f4ca4d1"><rect x="0" width="202" y="0" height="143"/></clipPath><clipPath id="52ac3a6909"><rect x="0" width="394" y="0" height="516"/></clipPath><clipPath id="fdc5a77c7e"><path d="M 0.558594 89 L 72 89 L 72 162 L 0.558594 162 Z M 0.558594 89 " clip-rule="nonzero"/></clipPath><clipPath id="8be4fb2ee0"><rect x="0" width="74" y="0" height="247"/></clipPath></defs><g transform="matrix(1, 0, 0, 1, 451, 332)"><g clip-path="url(#bf25a55671)"><g fill="#232831" fill-opacity="1"><g transform="translate(0.499292, 89.607539)"><g><path d="M 1.75 -61.34375 L 13.609375 -61.34375 C 13.609375 -61.34375 13.441406 -61.285156 13.109375 -61.171875 C 12.785156 -61.054688 12.410156 -60.785156 11.984375 -60.359375 C 11.554688 -59.929688 11.171875 -59.273438 10.828125 -58.390625 C 10.484375 -57.503906 10.3125 -56.289062 10.3125 -54.75 L 10.3125 -6.546875 C 10.3125 -5.003906 10.484375 -3.796875 10.828125 -2.921875 C 11.171875 -2.054688 11.554688 -1.410156 11.984375 -0.984375 C 12.410156 -0.554688 12.785156 -0.285156 13.109375 -0.171875 C 13.441406 -0.0546875 13.609375 0 13.609375 0 L 1.75 0 C 1.75 0 1.910156 -0.0625 2.234375 -0.1875 C 2.566406 -0.320312 2.945312 -0.59375 3.375 -1 C 3.800781 -1.414062 4.175781 -2.066406 4.5 -2.953125 C 4.832031 -3.835938 5 -5.035156 5 -6.546875 L 5 -54.796875 C 5 -56.304688 4.832031 -57.492188 4.5 -58.359375 C 4.175781 -59.234375 3.800781 -59.882812 3.375 -60.3125 C 2.945312 -60.738281 2.566406 -61.015625 2.234375 -61.140625 C 1.910156 -61.273438 1.75 -61.34375 1.75 -61.34375 Z M 1.75 -61.34375 "/></g></g><g transform="translate(15.814603, 89.607539)"><g><path d="M 44.828125 0 L 1.75 0 C 1.75 0 1.910156 -0.0625 2.234375 -0.1875 C 2.566406 -0.320312 2.945312 -0.59375 3.375 -1 C 3.800781 -1.414062 4.175781 -2.066406 4.5 -2.953125 C 4.832031 -3.835938 5 -5.035156 5 -6.546875 L 5 -54.796875 C 5 -56.304688 4.832031 -57.492188 4.5 -58.359375 C 4.175781 -59.234375 3.800781 -59.882812 3.375 -60.3125 C 2.945312 -60.738281 2.566406 -61.015625 2.234375 -61.140625 C 1.910156 -61.273438 1.75 -61.34375 1.75 -61.34375 L 13.609375 -61.34375 C 13.609375 -61.34375 13.441406 -61.285156 13.109375 -61.171875 C 12.785156 -61.054688 12.410156 -60.785156 11.984375 -60.359375 C 11.554688 -59.929688 11.171875 -59.273438 10.828125 -58.390625 C 10.484375 -57.503906 10.3125 -56.289062 10.3125 -54.75 L 10.3125 -6.546875 C 10.3125 -5.972656 10.335938 -5.382812 10.390625 -4.78125 C 10.453125 -4.1875 10.609375 -3.679688 10.859375 -3.265625 C 11.117188 -2.859375 11.535156 -2.65625 12.109375 -2.65625 C 12.109375 -2.65625 12.601562 -2.65625 13.59375 -2.65625 C 14.59375 -2.65625 16.195312 -2.65625 18.40625 -2.65625 C 20.625 -2.65625 23.585938 -2.65625 27.296875 -2.65625 C 30.429688 -2.65625 33.046875 -2.847656 35.140625 -3.234375 C 37.234375 -3.617188 38.925781 -4.09375 40.21875 -4.65625 C 41.519531 -5.226562 42.5 -5.804688 43.15625 -6.390625 C 43.8125 -6.972656 44.253906 -7.457031 44.484375 -7.84375 C 44.710938 -8.226562 44.828125 -8.421875 44.828125 -8.421875 Z M 44.828125 0 "/></g></g><g transform="translate(62.445017, 89.607539)"><g><path d="M 44.828125 0 L 1.75 0 C 1.75 0 1.910156 -0.0625 2.234375 -0.1875 C 2.566406 -0.320312 2.945312 -0.59375 3.375 -1 C 3.800781 -1.414062 4.175781 -2.066406 4.5 -2.953125 C 4.832031 -3.835938 5 -5.035156 5 -6.546875 L 5 -54.796875 C 5 -56.304688 4.832031 -57.492188 4.5 -58.359375 C 4.175781 -59.234375 3.800781 -59.882812 3.375 -60.3125 C 2.945312 -60.738281 2.566406 -61.015625 2.234375 -61.140625 C 1.910156 -61.273438 1.75 -61.34375 1.75 -61.34375 L 13.609375 -61.34375 C 13.609375 -61.34375 13.441406 -61.285156 13.109375 -61.171875 C 12.785156 -61.054688 12.410156 -60.785156 11.984375 -60.359375 C 11.554688 -59.929688 11.171875 -59.273438 10.828125 -58.390625 C 10.484375 -57.503906 10.3125 -56.289062 10.3125 -54.75 L 10.3125 -6.546875 C 10.3125 -5.972656 10.335938 -5.382812 10.390625 -4.78125 C 10.453125 -4.1875 10.609375 -3.679688 10.859375 -3.265625 C 11.117188 -2.859375 11.535156 -2.65625 12.109375 -2.65625 C 12.109375 -2.65625 12.601562 -2.65625 13.59375 -2.65625 C 14.59375 -2.65625 16.195312 -2.65625 18.40625 -2.65625 C 20.625 -2.65625 23.585938 -2.65625 27.296875 -2.65625 C 30.429688 -2.65625 33.046875 -2.847656 35.140625 -3.234375 C 37.234375 -3.617188 38.925781 -4.09375 40.21875 -4.65625 C 41.519531 -5.226562 42.5 -5.804688 43.15625 -6.390625 C 43.8125 -6.972656 44.253906 -7.457031 44.484375 -7.84375 C 44.710938 -8.226562 44.828125 -8.421875 44.828125 -8.421875 Z M 44.828125 0 "/></g></g></g><g fill="#232831" fill-opacity="1"><g transform="translate(102.658401, 89.607539)"><g><path d="M 25.578125 -28.28125 L 9.109375 -54.75 C 8.140625 -56.289062 7.210938 -57.503906 6.328125 -58.390625 C 5.441406 -59.273438 4.65625 -59.929688 3.96875 -60.359375 C 3.289062 -60.785156 2.75 -61.054688 2.34375 -61.171875 C 1.945312 -61.285156 1.75 -61.34375 1.75 -61.34375 L 13.609375 -61.34375 C 13.609375 -61.34375 13.484375 -61.273438 13.234375 -61.140625 C 12.992188 -61.015625 12.785156 -60.738281 12.609375 -60.3125 C 12.441406 -59.882812 12.460938 -59.234375 12.671875 -58.359375 C 12.890625 -57.492188 13.472656 -56.304688 14.421875 -54.796875 L 29.125 -31.09375 L 45.4375 -54.796875 C 46.457031 -56.304688 47.109375 -57.492188 47.390625 -58.359375 C 47.679688 -59.234375 47.753906 -59.882812 47.609375 -60.3125 C 47.460938 -60.738281 47.269531 -61.015625 47.03125 -61.140625 C 46.789062 -61.273438 46.671875 -61.34375 46.671875 -61.34375 L 55.703125 -61.34375 C 55.703125 -61.34375 55.492188 -61.285156 55.078125 -61.171875 C 54.660156 -61.054688 54.09375 -60.785156 53.375 -60.359375 C 52.664062 -59.929688 51.84375 -59.273438 50.90625 -58.390625 C 49.96875 -57.503906 48.96875 -56.289062 47.90625 -54.75 L 30.890625 -30.078125 L 30.890625 -6.546875 C 30.890625 -5.003906 31.050781 -3.796875 31.375 -2.921875 C 31.707031 -2.054688 32.09375 -1.410156 32.53125 -0.984375 C 32.976562 -0.554688 33.363281 -0.285156 33.6875 -0.171875 C 34.007812 -0.0546875 34.171875 0 34.171875 0 L 22.28125 0 C 22.28125 0 22.441406 -0.0625 22.765625 -0.1875 C 23.097656 -0.320312 23.484375 -0.59375 23.921875 -1 C 24.367188 -1.414062 24.753906 -2.066406 25.078125 -2.953125 C 25.410156 -3.835938 25.578125 -5.035156 25.578125 -6.546875 Z M 25.578125 -28.28125 "/></g></g></g></g></g><g transform="matrix(1, 0, 0, 1, 144, 146)"><g clip-path="url(#f4c9a4fba1)"><g fill="#232831" fill-opacity="1"><g transform="translate(27.749998, 302.074223)"><g><path d="M 228.171875 70.28125 C 218.429688 70.28125 209.785156 68.332031 202.234375 64.4375 C 194.691406 60.539062 188.789062 54.910156 184.53125 47.546875 C 180.28125 40.179688 178.15625 31.453125 178.15625 21.359375 C 178.15625 7.847656 182.566406 -7.785156 191.390625 -25.546875 C 200.210938 -43.316406 214.84375 -62.484375 235.28125 -83.046875 L 232.1875 -85.234375 C 220.257812 -74.410156 209.09375 -63.765625 198.6875 -53.296875 C 188.28125 -42.828125 178.753906 -33.363281 170.109375 -24.90625 C 161.472656 -16.457031 153.835938 -9.707031 147.203125 -4.65625 C 140.578125 0.394531 135.015625 2.921875 130.515625 2.921875 C 128.679688 2.921875 127.765625 1.882812 127.765625 -0.1875 C 127.765625 -4.6875 129.40625 -9.914062 132.6875 -15.875 C 135.976562 -21.84375 140.390625 -28.265625 145.921875 -35.140625 C 151.460938 -42.015625 157.703125 -49.101562 164.640625 -56.40625 C 171.578125 -63.707031 178.785156 -70.914062 186.265625 -78.03125 C 193.753906 -85.144531 201.023438 -91.867188 208.078125 -98.203125 L 202.609375 -100.390625 C 194.210938 -93.578125 185.421875 -86.1875 176.234375 -78.21875 C 167.046875 -70.25 157.492188 -62.21875 147.578125 -54.125 C 137.660156 -46.03125 127.46875 -38.300781 117 -30.9375 C 106.539062 -23.570312 95.894531 -16.96875 85.0625 -11.125 C 74.226562 -5.289062 63.242188 -0.703125 52.109375 2.640625 C 40.972656 5.992188 29.75 7.671875 18.4375 7.671875 C 7.851562 7.671875 -0.722656 6.023438 -7.296875 2.734375 C -13.867188 -0.546875 -18.675781 -4.679688 -21.71875 -9.671875 C -24.757812 -14.660156 -26.28125 -19.648438 -26.28125 -24.640625 C -26.28125 -29.628906 -25.210938 -33.828125 -23.078125 -37.234375 C -20.953125 -40.640625 -18.335938 -43.191406 -15.234375 -44.890625 C -12.140625 -46.597656 -9.191406 -47.453125 -6.390625 -47.453125 C -3.835938 -47.453125 -1.679688 -46.753906 0.078125 -45.359375 C 1.847656 -43.960938 2.734375 -41.800781 2.734375 -38.875 C 2.734375 -35.957031 1.640625 -33.554688 -0.546875 -31.671875 C -2.734375 -29.785156 -5.226562 -28.171875 -8.03125 -26.828125 C -10.832031 -25.492188 -13.328125 -24.125 -15.515625 -22.71875 C -17.703125 -21.320312 -18.796875 -19.585938 -18.796875 -17.515625 C -18.796875 -13.628906 -17.488281 -10.285156 -14.875 -7.484375 C -12.257812 -4.679688 -8.941406 -2.394531 -4.921875 -0.625 C -0.910156 1.132812 3.3125 2.40625 7.75 3.1875 C 12.195312 3.976562 16.242188 4.375 19.890625 4.375 C 32.796875 4.375 45.515625 2.1875 58.046875 -2.1875 C 70.578125 -6.570312 82.894531 -12.472656 95 -19.890625 C 107.113281 -27.316406 119.070312 -35.65625 130.875 -44.90625 C 142.675781 -54.15625 154.296875 -63.644531 165.734375 -73.375 C 177.171875 -83.113281 188.488281 -92.425781 199.6875 -101.3125 C 191.53125 -104.101562 182.765625 -106.257812 173.390625 -107.78125 C 164.023438 -109.300781 153.929688 -110.0625 143.109375 -110.0625 C 129.722656 -110.0625 116.789062 -108.359375 104.3125 -104.953125 C 91.84375 -101.546875 78.789062 -96.4375 65.15625 -89.625 L 59.5 -97.109375 C 72.15625 -102.703125 85.113281 -106.804688 98.375 -109.421875 C 111.644531 -112.046875 124.910156 -113.359375 138.171875 -113.359375 C 150.460938 -113.359375 161.929688 -112.441406 172.578125 -110.609375 C 183.234375 -108.785156 193 -106.289062 201.875 -103.125 C 210.269531 -109.695312 218.570312 -115.8125 226.78125 -121.46875 C 235 -127.132812 243.1875 -131.972656 251.34375 -135.984375 L 252.078125 -134.34375 C 247.210938 -128.132812 241.976562 -121.773438 236.375 -115.265625 C 230.78125 -108.753906 225 -102.273438 219.03125 -95.828125 C 221.34375 -94.609375 223.535156 -93.390625 225.609375 -92.171875 C 227.679688 -90.960938 229.6875 -89.6875 231.625 -88.34375 C 242.820312 -98.445312 254.65625 -108.300781 267.125 -117.90625 C 279.601562 -127.519531 292.65625 -136.039062 306.28125 -143.46875 L 308.109375 -141.09375 C 295.578125 -129.289062 284.195312 -118.066406 273.96875 -107.421875 C 263.75 -96.773438 254.503906 -86.644531 246.234375 -77.03125 C 254.867188 -69.363281 261.925781 -60.992188 267.40625 -51.921875 C 272.882812 -42.859375 276.960938 -33.550781 279.640625 -24 C 282.316406 -14.445312 283.65625 -5.109375 283.65625 4.015625 C 283.65625 13.015625 282.4375 21.5 280 29.46875 C 277.570312 37.445312 273.984375 44.507812 269.234375 50.65625 C 264.484375 56.800781 258.671875 61.609375 251.796875 65.078125 C 244.921875 68.546875 237.046875 70.28125 228.171875 70.28125 Z M 236.921875 -84.6875 C 245.566406 -93.207031 255.242188 -101.910156 265.953125 -110.796875 C 276.660156 -119.679688 288.582031 -128.6875 301.71875 -137.8125 L 301.171875 -138.171875 C 289.128906 -130.992188 277.476562 -122.992188 266.21875 -114.171875 C 254.96875 -105.347656 244.226562 -96.253906 234 -86.890625 Z M 209.90625 -100.03125 L 239.296875 -125.953125 L 239.109375 -126.3125 C 234.003906 -123.632812 228.5625 -120.226562 222.78125 -116.09375 C 217 -111.957031 210.945312 -107.269531 204.625 -102.03125 C 205.59375 -101.789062 206.503906 -101.488281 207.359375 -101.125 C 208.210938 -100.757812 209.0625 -100.394531 209.90625 -100.03125 Z M 132.328125 0.1875 C 136.109375 0.1875 141.097656 -2.273438 147.296875 -7.203125 C 153.503906 -12.140625 160.742188 -18.804688 169.015625 -27.203125 C 177.296875 -35.597656 186.578125 -44.96875 196.859375 -55.3125 C 207.140625 -65.65625 218.179688 -76.179688 229.984375 -86.890625 C 225.972656 -89.441406 221.773438 -91.8125 217.390625 -94 C 209.242188 -85 201.0625 -76.175781 192.84375 -67.53125 C 184.632812 -58.894531 176.847656 -50.742188 169.484375 -43.078125 C 162.117188 -35.410156 155.546875 -28.5625 149.765625 -22.53125 C 143.984375 -16.507812 139.445312 -11.613281 136.15625 -7.84375 C 132.875 -4.070312 131.234375 -1.703125 131.234375 -0.734375 C 131.234375 -0.117188 131.597656 0.1875 132.328125 0.1875 Z M 228.71875 67.53125 C 239.90625 67.53125 249.421875 64.671875 257.265625 58.953125 C 265.117188 53.234375 271.082031 45.566406 275.15625 35.953125 C 279.238281 26.335938 281.28125 15.8125 281.28125 4.375 C 281.28125 -4.625 279.972656 -13.804688 277.359375 -23.171875 C 274.742188 -32.546875 270.757812 -41.703125 265.40625 -50.640625 C 260.050781 -59.585938 253.175781 -67.835938 244.78125 -75.390625 C 230.78125 -59.078125 219.519531 -44.226562 211 -30.84375 C 202.488281 -17.457031 196.316406 -5.566406 192.484375 4.828125 C 188.648438 15.234375 186.734375 24.332031 186.734375 32.125 C 186.734375 40.15625 188.554688 46.785156 192.203125 52.015625 C 195.859375 57.253906 200.847656 61.148438 207.171875 63.703125 C 213.503906 66.253906 220.6875 67.53125 228.71875 67.53125 Z M 228.71875 67.53125 "/></g></g></g></g></g><g transform="matrix(1, 0, 0, 1, 1068, 332)"><g clip-path="url(#8f1f4ca4d1)"><g fill="#232831" fill-opacity="1"><g transform="translate(0.165656, 89.607539)"><g><path d="M 49.234375 0 C 49.234375 0 49.375 -0.0625 49.65625 -0.1875 C 49.945312 -0.320312 50.21875 -0.59375 50.46875 -1 C 50.726562 -1.414062 50.84375 -2.066406 50.8125 -2.953125 C 50.789062 -3.835938 50.476562 -5.035156 49.875 -6.546875 L 43.203125 -23.265625 L 16.8125 -23.265625 L 10.140625 -6.546875 C 9.535156 -5.035156 9.21875 -3.835938 9.1875 -2.953125 C 9.164062 -2.066406 9.28125 -1.414062 9.53125 -1 C 9.789062 -0.59375 10.0625 -0.320312 10.34375 -0.1875 C 10.632812 -0.0625 10.78125 0 10.78125 0 L 1.75 0 C 1.75 0 1.929688 -0.0546875 2.296875 -0.171875 C 2.671875 -0.285156 3.15625 -0.554688 3.75 -0.984375 C 4.351562 -1.410156 5 -2.054688 5.6875 -2.921875 C 6.375 -3.796875 7.03125 -5.003906 7.65625 -6.546875 L 29.46875 -61.34375 L 33.40625 -61.34375 L 55.1875 -6.546875 C 55.8125 -5.003906 56.460938 -3.796875 57.140625 -2.921875 C 57.828125 -2.054688 58.46875 -1.410156 59.0625 -0.984375 C 59.664062 -0.554688 60.15625 -0.285156 60.53125 -0.171875 C 60.90625 -0.0546875 61.09375 0 61.09375 0 Z M 17.453125 -24.859375 L 42.5625 -24.859375 C 42.5625 -24.859375 42.390625 -25.289062 42.046875 -26.15625 C 41.703125 -27.03125 41.226562 -28.207031 40.625 -29.6875 C 40.03125 -31.164062 39.363281 -32.832031 38.625 -34.6875 C 37.882812 -36.539062 37.117188 -38.453125 36.328125 -40.421875 C 35.546875 -42.390625 34.773438 -44.304688 34.015625 -46.171875 C 33.265625 -48.046875 32.585938 -49.738281 31.984375 -51.25 C 31.390625 -52.757812 30.90625 -53.96875 30.53125 -54.875 C 30.164062 -55.789062 29.96875 -56.28125 29.9375 -56.34375 C 29.914062 -56.28125 29.722656 -55.789062 29.359375 -54.875 C 29.003906 -53.96875 28.523438 -52.757812 27.921875 -51.25 C 27.328125 -49.738281 26.660156 -48.046875 25.921875 -46.171875 C 25.179688 -44.304688 24.414062 -42.390625 23.625 -40.421875 C 22.84375 -38.453125 22.085938 -36.539062 21.359375 -34.6875 C 20.640625 -32.832031 19.976562 -31.164062 19.375 -29.6875 C 18.78125 -28.207031 18.3125 -27.03125 17.96875 -26.15625 C 17.625 -25.289062 17.453125 -24.859375 17.453125 -24.859375 Z M 17.453125 -24.859375 "/></g></g><g transform="translate(62.966984, 89.607539)"><g><path d="M 44.484375 -6.546875 C 45.515625 -5.035156 46.484375 -3.835938 47.390625 -2.953125 C 48.304688 -2.066406 49.117188 -1.414062 49.828125 -1 C 50.546875 -0.59375 51.109375 -0.320312 51.515625 -0.1875 C 51.929688 -0.0625 52.140625 0 52.140625 0 L 40.296875 0 C 40.296875 0 40.414062 -0.0546875 40.65625 -0.171875 C 40.90625 -0.285156 41.109375 -0.554688 41.265625 -0.984375 C 41.421875 -1.410156 41.367188 -2.054688 41.109375 -2.921875 C 40.847656 -3.796875 40.207031 -5.003906 39.1875 -6.546875 L 28.40625 -22.671875 C 27.03125 -22.554688 25.59375 -22.46875 24.09375 -22.40625 C 22.601562 -22.351562 21.03125 -22.328125 19.375 -22.328125 L 10.3125 -22.328125 L 10.3125 -6.546875 C 10.3125 -5.003906 10.484375 -3.796875 10.828125 -2.921875 C 11.171875 -2.054688 11.554688 -1.410156 11.984375 -0.984375 C 12.410156 -0.554688 12.785156 -0.285156 13.109375 -0.171875 C 13.441406 -0.0546875 13.609375 0 13.609375 0 L 1.75 0 C 1.75 0 1.910156 -0.0625 2.234375 -0.1875 C 2.566406 -0.320312 2.953125 -0.59375 3.390625 -1 C 3.835938 -1.414062 4.222656 -2.066406 4.546875 -2.953125 C 4.878906 -3.835938 5.046875 -5.035156 5.046875 -6.546875 L 5.046875 -54.796875 C 5.046875 -56.304688 4.878906 -57.492188 4.546875 -58.359375 C 4.222656 -59.234375 3.835938 -59.882812 3.390625 -60.3125 C 2.953125 -60.738281 2.566406 -61.015625 2.234375 -61.140625 C 1.910156 -61.273438 1.75 -61.34375 1.75 -61.34375 L 30.15625 -61.296875 C 33.632812 -61.296875 36.882812 -60.867188 39.90625 -60.015625 C 42.9375 -59.160156 45.582031 -57.90625 47.84375 -56.25 C 50.113281 -54.59375 51.890625 -52.550781 53.171875 -50.125 C 54.453125 -47.707031 55.09375 -44.929688 55.09375 -41.796875 C 55.09375 -39.648438 54.742188 -37.597656 54.046875 -35.640625 C 53.347656 -33.691406 52.175781 -31.898438 50.53125 -30.265625 C 48.894531 -28.628906 46.671875 -27.203125 43.859375 -25.984375 C 41.054688 -24.773438 37.546875 -23.859375 33.328125 -23.234375 Z M 19.375 -24.6875 C 24.96875 -24.738281 29.664062 -25.226562 33.46875 -26.15625 C 37.28125 -27.082031 40.335938 -28.335938 42.640625 -29.921875 C 44.953125 -31.503906 46.617188 -33.335938 47.640625 -35.421875 C 48.671875 -37.503906 49.1875 -39.710938 49.1875 -42.046875 C 49.1875 -44.441406 48.71875 -46.648438 47.78125 -48.671875 C 46.84375 -50.703125 45.507812 -52.457031 43.78125 -53.9375 C 42.050781 -55.425781 40.03125 -56.582031 37.71875 -57.40625 C 35.414062 -58.238281 32.894531 -58.65625 30.15625 -58.65625 L 13.296875 -58.65625 C 12.421875 -58.65625 11.765625 -58.445312 11.328125 -58.03125 C 10.898438 -57.613281 10.625 -57.101562 10.5 -56.5 C 10.375 -55.90625 10.3125 -55.320312 10.3125 -54.75 L 10.3125 -24.6875 Z M 19.375 -24.6875 "/></g></g><g transform="translate(119.821865, 89.607539)"><g><path d="M 1.75 -61.34375 L 13.609375 -61.34375 C 13.609375 -61.34375 13.441406 -61.285156 13.109375 -61.171875 C 12.785156 -61.054688 12.410156 -60.785156 11.984375 -60.359375 C 11.554688 -59.929688 11.171875 -59.273438 10.828125 -58.390625 C 10.484375 -57.503906 10.3125 -56.289062 10.3125 -54.75 L 10.3125 -6.546875 C 10.3125 -5.003906 10.484375 -3.796875 10.828125 -2.921875 C 11.171875 -2.054688 11.554688 -1.410156 11.984375 -0.984375 C 12.410156 -0.554688 12.785156 -0.285156 13.109375 -0.171875 C 13.441406 -0.0546875 13.609375 0 13.609375 0 L 1.75 0 C 1.75 0 1.910156 -0.0625 2.234375 -0.1875 C 2.566406 -0.320312 2.945312 -0.59375 3.375 -1 C 3.800781 -1.414062 4.175781 -2.066406 4.5 -2.953125 C 4.832031 -3.835938 5 -5.035156 5 -6.546875 L 5 -54.796875 C 5 -56.304688 4.832031 -57.492188 4.5 -58.359375 C 4.175781 -59.234375 3.800781 -59.882812 3.375 -60.3125 C 2.945312 -60.738281 2.566406 -61.015625 2.234375 -61.140625 C 1.910156 -61.273438 1.75 -61.34375 1.75 -61.34375 Z M 1.75 -61.34375 "/></g></g><g transform="translate(135.137175, 89.607539)"><g><path d="M 49.84375 -6.078125 C 51.351562 -5.191406 52.816406 -4.425781 54.234375 -3.78125 C 55.660156 -3.144531 57.035156 -2.722656 58.359375 -2.515625 C 59.691406 -2.316406 60.957031 -2.429688 62.15625 -2.859375 C 60.039062 -1.265625 57.992188 -0.316406 56.015625 -0.015625 C 54.035156 0.273438 52.109375 0.117188 50.234375 -0.484375 C 48.367188 -1.097656 46.539062 -1.945312 44.75 -3.03125 C 42.832031 -2.125 40.796875 -1.421875 38.640625 -0.921875 C 36.492188 -0.421875 34.28125 -0.171875 32 -0.171875 C 28.664062 -0.171875 25.484375 -0.679688 22.453125 -1.703125 C 19.429688 -2.734375 16.660156 -4.1875 14.140625 -6.0625 C 11.617188 -7.945312 9.429688 -10.164062 7.578125 -12.71875 C 5.722656 -15.28125 4.285156 -18.082031 3.265625 -21.125 C 2.253906 -24.175781 1.75 -27.382812 1.75 -30.75 C 1.75 -34.144531 2.253906 -37.367188 3.265625 -40.421875 C 4.285156 -43.472656 5.722656 -46.273438 7.578125 -48.828125 C 9.429688 -51.378906 11.617188 -53.585938 14.140625 -55.453125 C 16.660156 -57.328125 19.429688 -58.773438 22.453125 -59.796875 C 25.484375 -60.828125 28.664062 -61.34375 32 -61.34375 C 35.332031 -61.34375 38.507812 -60.828125 41.53125 -59.796875 C 44.5625 -58.773438 47.335938 -57.328125 49.859375 -55.453125 C 52.378906 -53.585938 54.566406 -51.378906 56.421875 -48.828125 C 58.273438 -46.273438 59.707031 -43.472656 60.71875 -40.421875 C 61.726562 -37.367188 62.234375 -34.144531 62.234375 -30.75 C 62.234375 -27.382812 61.71875 -24.171875 60.6875 -21.109375 C 59.664062 -18.046875 58.226562 -15.238281 56.375 -12.6875 C 54.519531 -10.132812 52.34375 -7.929688 49.84375 -6.078125 Z M 32 -2.6875 C 33.769531 -2.6875 35.476562 -2.882812 37.125 -3.28125 C 38.78125 -3.6875 40.351562 -4.257812 41.84375 -5 C 40.070312 -6.289062 38.320312 -7.578125 36.59375 -8.859375 C 34.875 -10.140625 33.171875 -11.207031 31.484375 -12.0625 C 29.796875 -12.914062 28.113281 -13.34375 26.4375 -13.34375 C 24.1875 -13.34375 22.257812 -12.9375 20.65625 -12.125 C 19.0625 -11.3125 17.566406 -10.320312 16.171875 -9.15625 C 18.304688 -7.15625 20.722656 -5.578125 23.421875 -4.421875 C 26.117188 -3.265625 28.976562 -2.6875 32 -2.6875 Z M 46.578125 -8.046875 C 48.660156 -9.753906 50.460938 -11.773438 51.984375 -14.109375 C 53.515625 -16.453125 54.703125 -19.023438 55.546875 -21.828125 C 56.390625 -24.640625 56.8125 -27.585938 56.8125 -30.671875 C 56.8125 -33.753906 56.390625 -36.695312 55.546875 -39.5 C 54.703125 -42.3125 53.523438 -44.878906 52.015625 -47.203125 C 50.503906 -49.523438 48.710938 -51.550781 46.640625 -53.28125 C 44.578125 -55.007812 42.304688 -56.34375 39.828125 -57.28125 C 37.347656 -58.21875 34.738281 -58.6875 32 -58.6875 C 29.257812 -58.6875 26.648438 -58.21875 24.171875 -57.28125 C 21.691406 -56.34375 19.414062 -55.007812 17.34375 -53.28125 C 15.28125 -51.550781 13.488281 -49.523438 11.96875 -47.203125 C 10.457031 -44.878906 9.28125 -42.3125 8.4375 -39.5 C 7.601562 -36.695312 7.1875 -33.753906 7.1875 -30.671875 C 7.1875 -26.566406 7.921875 -22.726562 9.390625 -19.15625 C 10.859375 -15.59375 12.832031 -12.53125 15.3125 -9.96875 C 15.914062 -10.738281 16.765625 -11.554688 17.859375 -12.421875 C 18.953125 -13.296875 20.394531 -14.046875 22.1875 -14.671875 C 23.988281 -15.296875 26.203125 -15.609375 28.828125 -15.609375 C 30.796875 -15.609375 32.773438 -15.226562 34.765625 -14.46875 C 36.765625 -13.71875 38.753906 -12.757812 40.734375 -11.59375 C 42.722656 -10.425781 44.671875 -9.242188 46.578125 -8.046875 Z M 46.578125 -8.046875 "/></g></g></g></g></g><g transform="matrix(1, 0, 0, 1, 848, 146)"><g clip-path="url(#52ac3a6909)"><g fill="#232831" fill-opacity="1"><g transform="translate(17.534305, 302.074223)"><g><path d="M 66.078125 6.390625 C 60.960938 6.390625 54.9375 6.175781 48 5.75 C 41.0625 5.320312 33.941406 4.4375 26.640625 3.09375 C 19.347656 1.757812 12.566406 -0.273438 6.296875 -3.015625 C 0.0234375 -5.753906 -5.050781 -9.460938 -8.9375 -14.140625 C -12.832031 -18.828125 -14.78125 -24.757812 -14.78125 -31.9375 C -14.78125 -38.632812 -13.078125 -44.660156 -9.671875 -50.015625 C -6.265625 -55.367188 -1.765625 -60.050781 3.828125 -64.0625 C 9.429688 -68.082031 15.609375 -71.488281 22.359375 -74.28125 C 29.109375 -77.082031 35.921875 -79.242188 42.796875 -80.765625 C 49.671875 -82.285156 55.972656 -83.289062 61.703125 -83.78125 C 65.953125 -91.6875 71.757812 -99.164062 79.125 -106.21875 C 86.488281 -113.28125 94.640625 -119.488281 103.578125 -124.84375 C 112.523438 -130.207031 121.679688 -134.410156 131.046875 -137.453125 C 140.421875 -140.492188 149.25 -142.015625 157.53125 -142.015625 C 165.3125 -142.015625 171.207031 -140.613281 175.21875 -137.8125 C 179.238281 -135.007812 181.738281 -131.476562 182.71875 -127.21875 C 189.40625 -129.78125 196.398438 -131.820312 203.703125 -133.34375 C 211.003906 -134.863281 218.550781 -135.625 226.34375 -135.625 C 236.195312 -135.625 244.832031 -134.40625 252.25 -131.96875 C 259.675781 -129.53125 266.367188 -126.546875 272.328125 -123.015625 C 278.296875 -119.492188 284.046875 -115.96875 289.578125 -112.4375 C 295.117188 -108.90625 300.8125 -105.921875 306.65625 -103.484375 C 312.5 -101.054688 319.066406 -99.84375 326.359375 -99.84375 C 331.347656 -99.84375 336.457031 -100.359375 341.6875 -101.390625 C 346.925781 -102.429688 351.945312 -103.921875 356.75 -105.859375 C 361.5625 -107.804688 365.734375 -110.0625 369.265625 -112.625 L 372.734375 -106.046875 C 369.929688 -104.460938 366.25 -102.789062 361.6875 -101.03125 C 357.125 -99.269531 352.101562 -97.78125 346.625 -96.5625 C 341.144531 -95.34375 335.488281 -94.734375 329.65625 -94.734375 C 322.84375 -94.734375 316.695312 -95.644531 311.21875 -97.46875 C 305.738281 -99.289062 300.59375 -101.691406 295.78125 -104.671875 C 290.976562 -107.660156 286.203125 -110.765625 281.453125 -113.984375 C 276.710938 -117.210938 271.632812 -120.316406 266.21875 -123.296875 C 260.800781 -126.273438 254.804688 -128.675781 248.234375 -130.5 C 241.671875 -132.332031 234.128906 -133.25 225.609375 -133.25 C 217.941406 -133.25 210.546875 -132.488281 203.421875 -130.96875 C 196.304688 -129.445312 189.523438 -127.46875 183.078125 -125.03125 C 183.203125 -124.539062 183.265625 -124.082031 183.265625 -123.65625 C 183.265625 -123.238281 183.265625 -122.785156 183.265625 -122.296875 C 183.265625 -117.179688 181.832031 -111.765625 178.96875 -106.046875 C 176.113281 -100.328125 172.160156 -94.972656 167.109375 -89.984375 C 162.054688 -84.992188 156.273438 -80.914062 149.765625 -77.75 C 143.253906 -74.59375 136.347656 -73.015625 129.046875 -73.015625 C 124.910156 -73.015625 122.84375 -74.597656 122.84375 -77.765625 C 122.84375 -80.316406 124.179688 -83.539062 126.859375 -87.4375 C 129.535156 -91.332031 133.304688 -95.53125 138.171875 -100.03125 C 143.046875 -104.53125 148.859375 -109 155.609375 -113.4375 C 162.359375 -117.882812 169.75 -121.8125 177.78125 -125.21875 C 177.90625 -125.457031 177.96875 -125.757812 177.96875 -126.125 C 177.96875 -126.488281 177.96875 -126.796875 177.96875 -127.046875 C 177.96875 -130.816406 176.414062 -133.882812 173.3125 -136.25 C 170.207031 -138.625 164.945312 -139.8125 157.53125 -139.8125 C 148.03125 -139.8125 138.6875 -138.226562 129.5 -135.0625 C 120.3125 -131.90625 111.640625 -127.679688 103.484375 -122.390625 C 95.335938 -117.097656 88.222656 -111.132812 82.140625 -104.5 C 76.054688 -97.863281 71.367188 -91.078125 68.078125 -84.140625 C 78.910156 -84.140625 87.914062 -83.164062 95.09375 -81.21875 C 102.28125 -79.28125 107.972656 -76.726562 112.171875 -73.5625 C 116.367188 -70.394531 119.347656 -66.894531 121.109375 -63.0625 C 122.867188 -59.226562 123.75 -55.488281 123.75 -51.84375 C 123.75 -47.21875 123.019531 -43.472656 121.5625 -40.609375 C 120.101562 -37.753906 118.335938 -35.6875 116.265625 -34.40625 C 114.203125 -33.125 112.257812 -32.484375 110.4375 -32.484375 C 108.851562 -32.484375 107.539062 -32.878906 106.5 -33.671875 C 105.46875 -34.460938 104.953125 -35.585938 104.953125 -37.046875 C 104.953125 -39.972656 106.441406 -43.078125 109.421875 -46.359375 C 112.410156 -49.648438 116.457031 -51.597656 121.5625 -52.203125 C 121.070312 -58.160156 119.335938 -62.992188 116.359375 -66.703125 C 113.378906 -70.421875 109.726562 -73.34375 105.40625 -75.46875 C 101.09375 -77.601562 96.59375 -79.15625 91.90625 -80.125 C 87.21875 -81.101562 82.832031 -81.679688 78.75 -81.859375 C 74.675781 -82.046875 71.425781 -82.140625 69 -82.140625 L 67.171875 -82.140625 C 65.585938 -78.609375 64.550781 -75.320312 64.0625 -72.28125 L 57.859375 -75.203125 C 58.585938 -77.515625 59.5 -79.644531 60.59375 -81.59375 C 54.875 -80.976562 48.695312 -79.816406 42.0625 -78.109375 C 35.4375 -76.410156 28.957031 -74.191406 22.625 -71.453125 C 16.300781 -68.722656 10.519531 -65.441406 5.28125 -61.609375 C 0.0507812 -57.773438 -4.109375 -53.421875 -7.203125 -48.546875 C -10.304688 -43.679688 -11.859375 -38.328125 -11.859375 -32.484375 C -11.859375 -27.128906 -10.582031 -22.503906 -8.03125 -18.609375 C -5.476562 -14.722656 -2.070312 -11.441406 2.1875 -8.765625 C 6.445312 -6.085938 11.070312 -3.957031 16.0625 -2.375 C 21.050781 -0.789062 26.039062 0.332031 31.03125 1 C 36.019531 1.675781 40.519531 2.015625 44.53125 2.015625 C 55.976562 2.015625 66.960938 0.34375 77.484375 -3 C 88.015625 -6.351562 98.144531 -10.859375 107.875 -16.515625 C 117.613281 -22.171875 126.953125 -28.5 135.890625 -35.5 C 144.835938 -42.5 153.382812 -49.617188 161.53125 -56.859375 C 169.6875 -64.097656 177.476562 -70.941406 184.90625 -77.390625 C 188.675781 -80.679688 193.507812 -84.054688 199.40625 -87.515625 C 205.3125 -90.984375 212.097656 -94.054688 219.765625 -96.734375 C 227.429688 -99.410156 235.707031 -101.054688 244.59375 -101.671875 L 244.59375 -97.109375 C 243.375 -97.347656 241.609375 -97.46875 239.296875 -97.46875 C 236.617188 -97.46875 233.054688 -97.132812 228.609375 -96.46875 C 224.171875 -95.800781 219.273438 -94.367188 213.921875 -92.171875 C 208.203125 -89.742188 203.304688 -87.28125 199.234375 -84.78125 C 195.160156 -82.289062 191.328125 -79.460938 187.734375 -76.296875 C 184.140625 -73.128906 180.210938 -69.296875 175.953125 -64.796875 C 169.390625 -57.984375 163.703125 -51.503906 158.890625 -45.359375 C 154.085938 -39.210938 149.613281 -33.492188 145.46875 -28.203125 C 141.332031 -22.910156 137.015625 -18.132812 132.515625 -13.875 C 128.015625 -9.613281 122.84375 -5.960938 117 -2.921875 C 111.15625 0.117188 104.125 2.429688 95.90625 4.015625 C 87.695312 5.597656 77.753906 6.390625 66.078125 6.390625 Z M 129.234375 -76.109375 C 131.910156 -76.109375 135.132812 -77.113281 138.90625 -79.125 C 142.675781 -81.132812 146.628906 -83.8125 150.765625 -87.15625 C 154.910156 -90.5 158.835938 -94.207031 162.546875 -98.28125 C 166.253906 -102.363281 169.445312 -106.535156 172.125 -110.796875 C 174.800781 -115.054688 176.566406 -119.070312 177.421875 -122.84375 C 169.628906 -119.5625 162.566406 -115.789062 156.234375 -111.53125 C 149.910156 -107.269531 144.5 -103.007812 140 -98.75 C 135.5 -94.488281 132.03125 -90.59375 129.59375 -87.0625 C 127.164062 -83.539062 125.953125 -80.804688 125.953125 -78.859375 C 125.953125 -77.023438 127.046875 -76.109375 129.234375 -76.109375 Z M 129.234375 -76.109375 "/></g></g></g></g></g><g transform="matrix(1, 0, 0, 1, 694, 275)"><g clip-path="url(#8be4fb2ee0)"><g clip-path="url(#fdc5a77c7e)"><g fill="#232831" fill-opacity="1"><g transform="translate(2.409834, 142.696764)"><g><path d="M 0.4375 18.484375 C -0.320312 18.484375 -0.847656 18.289062 -1.140625 17.90625 C -1.429688 17.53125 -1.578125 17.082031 -1.578125 16.5625 C -1.578125 14.101562 -0.671875 11.601562 1.140625 9.0625 C 2.953125 6.519531 5.359375 3.921875 8.359375 1.265625 C 11.367188 -1.390625 14.6875 -4.0625 18.3125 -6.75 C 14.34375 -8.613281 11.476562 -10.726562 9.71875 -13.09375 C 7.96875 -15.457031 7.09375 -17.957031 7.09375 -20.59375 C 7.09375 -23.625 8.070312 -26.6875 10.03125 -29.78125 C 11.988281 -32.882812 14.585938 -35.847656 17.828125 -38.671875 C 21.066406 -41.503906 24.6875 -44.046875 28.6875 -46.296875 C 32.6875 -48.546875 36.757812 -50.3125 40.90625 -51.59375 C 45.0625 -52.882812 48.945312 -53.53125 52.5625 -53.53125 C 55.945312 -53.53125 58.632812 -53.101562 60.625 -52.25 C 62.613281 -51.40625 63.609375 -49.992188 63.609375 -48.015625 C 63.609375 -45.671875 61.910156 -42.410156 58.515625 -38.234375 C 55.128906 -34.066406 49.46875 -28.769531 41.53125 -22.34375 C 39.25 -20.53125 36.570312 -18.148438 33.5 -15.203125 C 30.4375 -12.253906 27.179688 -9.054688 23.734375 -5.609375 C 24.148438 -5.492188 24.578125 -5.375 25.015625 -5.25 C 25.453125 -5.132812 25.875 -5.019531 26.28125 -4.90625 C 29.03125 -7.820312 31.96875 -10.695312 35.09375 -13.53125 C 38.21875 -16.363281 41.5625 -18.921875 45.125 -21.203125 C 48.6875 -23.484375 52.476562 -25.289062 56.5 -26.625 C 60.53125 -27.96875 64.828125 -28.640625 69.390625 -28.640625 L 68.515625 -26.984375 C 62.734375 -26.984375 57.375 -25.898438 52.4375 -23.734375 C 47.5 -21.578125 42.957031 -18.789062 38.8125 -15.375 C 34.664062 -11.957031 30.8125 -8.378906 27.25 -4.640625 C 28.820312 -4.296875 30.570312 -4.035156 32.5 -3.859375 L 31.359375 -2.546875 C 30.429688 -2.710938 29.570312 -2.898438 28.78125 -3.109375 C 27.988281 -3.316406 27.1875 -3.535156 26.375 -3.765625 C 22.863281 -0.0234375 19.585938 3.535156 16.546875 6.921875 C 13.515625 10.304688 10.6875 13.078125 8.0625 15.234375 C 5.4375 17.398438 2.894531 18.484375 0.4375 18.484375 Z M 19.28125 -7.453125 C 23.070312 -10.253906 26.984375 -13.054688 31.015625 -15.859375 C 35.046875 -18.660156 38.753906 -21.40625 42.140625 -24.09375 C 49.492188 -29.988281 54.660156 -34.847656 57.640625 -38.671875 C 60.617188 -42.503906 62.109375 -45.5 62.109375 -47.65625 C 62.109375 -49.351562 61.257812 -50.519531 59.5625 -51.15625 C 57.875 -51.800781 55.832031 -52.125 53.4375 -52.125 C 51.394531 -52.125 48.984375 -51.597656 46.203125 -50.546875 C 43.429688 -49.492188 40.515625 -48.046875 37.453125 -46.203125 C 34.390625 -44.367188 31.410156 -42.285156 28.515625 -39.953125 C 25.628906 -37.617188 23 -35.117188 20.625 -32.453125 C 18.257812 -29.796875 16.375 -27.140625 14.96875 -24.484375 C 13.570312 -21.828125 12.875 -19.300781 12.875 -16.90625 C 12.875 -15.039062 13.367188 -13.289062 14.359375 -11.65625 C 15.359375 -10.019531 17 -8.617188 19.28125 -7.453125 Z M 0.78125 17.953125 C 2.945312 17.953125 5.269531 16.898438 7.75 14.796875 C 10.238281 12.703125 12.941406 9.972656 15.859375 6.609375 C 18.773438 3.253906 21.957031 -0.289062 25.40625 -4.03125 L 22.953125 -4.8125 L 21.03125 -2.890625 C 18.570312 -0.378906 16.070312 1.925781 13.53125 4.03125 C 10.988281 6.132812 8.664062 8.03125 6.5625 9.71875 C 4.46875 11.414062 2.773438 12.863281 1.484375 14.0625 C 0.203125 15.257812 -0.4375 16.207031 -0.4375 16.90625 C -0.4375 17.601562 -0.03125 17.953125 0.78125 17.953125 Z M 0.78125 17.953125 "/></g></g></g></g></g></g></svg>