<svg xmlns="http://www.w3.org/2000/svg" xmlns:xlink="http://www.w3.org/1999/xlink" width="1536" zoomAndPan="magnify" viewBox="0 0 1152 1439.999935" height="1920" preserveAspectRatio="xMidYMid meet" version="1.0"><defs><g/><clipPath id="716687ff15"><path d="M 338 298 L 899.71875 298 L 899.71875 509 L 338 509 Z M 338 298 " clip-rule="nonzero"/></clipPath><clipPath id="796cd6e9aa"><rect x="0" width="562" y="0" height="211"/></clipPath><clipPath id="1676095c30"><path d="M 0.921875 0.441406 L 415 0.441406 L 415 707 L 0.921875 707 Z M 0.921875 0.441406 " clip-rule="nonzero"/></clipPath><clipPath id="c4aea2359d"><rect x="0" width="415" y="0" height="707"/></clipPath><clipPath id="e4fd43da87"><rect x="0" width="900" y="0" height="707"/></clipPath></defs><g transform="matrix(1, 0, 0, 1, 193, 337)"><g clip-path="url(#e4fd43da87)"><g clip-path="url(#716687ff15)"><g transform="matrix(1, 0, 0, 1, 338, 298)"><g clip-path="url(#796cd6e9aa)"><g fill="#F3EFE7" fill-opacity="1"><g transform="translate(1.005868, 131.949682)"><g><path d="M 43.734375 -44.6875 C 43.734375 -44.6875 43.597656 -44.96875 43.328125 -45.53125 C 43.054688 -46.101562 42.5 -46.816406 41.65625 -47.671875 C 40.820312 -48.535156 39.597656 -49.382812 37.984375 -50.21875 C 36.367188 -51.0625 34.25 -51.765625 31.625 -52.328125 C 29 -52.898438 25.71875 -53.1875 21.78125 -53.1875 L 15.171875 -53.109375 L 15.171875 -9.625 C 15.171875 -8.789062 15.242188 -7.929688 15.390625 -7.046875 C 15.535156 -6.171875 15.898438 -5.425781 16.484375 -4.8125 C 17.078125 -4.207031 18.003906 -3.90625 19.265625 -3.90625 C 19.265625 -3.90625 19.867188 -3.90625 21.078125 -3.90625 C 22.296875 -3.90625 24.414062 -3.90625 27.4375 -3.90625 C 30.457031 -3.90625 34.695312 -3.90625 40.15625 -3.90625 C 44.769531 -3.90625 48.617188 -4.1875 51.703125 -4.75 C 54.785156 -5.3125 57.28125 -6.015625 59.1875 -6.859375 C 61.09375 -7.703125 62.53125 -8.550781 63.5 -9.40625 C 64.46875 -10.269531 65.117188 -10.984375 65.453125 -11.546875 C 65.785156 -12.109375 65.953125 -12.390625 65.953125 -12.390625 L 65.953125 0 L 2.578125 0 C 2.578125 0 2.816406 -0.09375 3.296875 -0.28125 C 3.785156 -0.46875 4.34375 -0.863281 4.96875 -1.46875 C 5.601562 -2.082031 6.160156 -3.039062 6.640625 -4.34375 C 7.117188 -5.644531 7.359375 -7.40625 7.359375 -9.625 L 7.359375 -80.625 C 7.359375 -82.84375 7.117188 -84.59375 6.640625 -85.875 C 6.160156 -87.15625 5.601562 -88.109375 4.96875 -88.734375 C 4.34375 -89.367188 3.785156 -89.78125 3.296875 -89.96875 C 2.816406 -90.15625 2.578125 -90.25 2.578125 -90.25 L 65.953125 -90.1875 L 65.953125 -77.78125 C 65.953125 -77.78125 65.785156 -78.0625 65.453125 -78.625 C 65.117188 -79.195312 64.46875 -79.910156 63.5 -80.765625 C 62.53125 -81.628906 61.09375 -82.476562 59.1875 -83.3125 C 57.28125 -84.15625 54.785156 -84.859375 51.703125 -85.421875 C 48.617188 -85.992188 44.769531 -86.28125 40.15625 -86.28125 C 34.695312 -86.28125 30.457031 -86.28125 27.4375 -86.28125 C 24.414062 -86.28125 22.296875 -86.28125 21.078125 -86.28125 C 19.867188 -86.28125 19.265625 -86.28125 19.265625 -86.28125 C 17.878906 -86.28125 16.898438 -85.972656 16.328125 -85.359375 C 15.765625 -84.753906 15.429688 -84.007812 15.328125 -83.125 C 15.222656 -82.25 15.171875 -81.394531 15.171875 -80.5625 L 15.171875 -55.125 L 21.78125 -55.125 C 25.71875 -55.125 29 -55.40625 31.625 -55.96875 C 34.25 -56.539062 36.367188 -57.253906 37.984375 -58.109375 C 39.597656 -58.972656 40.820312 -59.820312 41.65625 -60.65625 C 42.5 -61.5 43.054688 -62.203125 43.328125 -62.765625 C 43.597656 -63.335938 43.734375 -63.625 43.734375 -63.625 Z M 43.734375 -44.6875 "/></g></g></g><g fill="#F3EFE7" fill-opacity="1"><g transform="translate(67.719559, 131.949682)"><g><path d="M 77.90625 -21.84375 C 77.78125 -20.332031 77.222656 -18.617188 76.234375 -16.703125 C 75.253906 -14.796875 73.882812 -12.890625 72.125 -10.984375 C 70.363281 -9.078125 68.242188 -7.300781 65.765625 -5.65625 C 63.285156 -4.019531 60.484375 -2.707031 57.359375 -1.71875 C 54.234375 -0.738281 50.804688 -0.25 47.078125 -0.25 C 42.171875 -0.25 37.492188 -1.003906 33.046875 -2.515625 C 28.597656 -4.023438 24.515625 -6.164062 20.796875 -8.9375 C 17.085938 -11.707031 13.867188 -14.96875 11.140625 -18.71875 C 8.410156 -22.476562 6.300781 -26.601562 4.8125 -31.09375 C 3.320312 -35.582031 2.578125 -40.300781 2.578125 -45.25 C 2.578125 -50.238281 3.320312 -54.976562 4.8125 -59.46875 C 6.300781 -63.957031 8.410156 -68.078125 11.140625 -71.828125 C 13.867188 -75.585938 17.085938 -78.84375 20.796875 -81.59375 C 24.515625 -84.34375 28.597656 -86.472656 33.046875 -87.984375 C 37.492188 -89.492188 42.171875 -90.25 47.078125 -90.25 C 50.890625 -90.25 54.335938 -89.878906 57.421875 -89.140625 C 60.503906 -88.410156 63.253906 -87.476562 65.671875 -86.34375 C 68.085938 -85.207031 70.21875 -84.03125 72.0625 -82.8125 C 73.90625 -81.601562 75.5 -80.503906 76.84375 -79.515625 C 78.1875 -78.535156 79.34375 -77.832031 80.3125 -77.40625 L 70.359375 -68.65625 C 70.773438 -71.007812 70.507812 -73.253906 69.5625 -75.390625 C 68.625 -77.535156 67.09375 -79.4375 64.96875 -81.09375 C 62.851562 -82.75 60.234375 -84.046875 57.109375 -84.984375 C 53.984375 -85.929688 50.453125 -86.40625 46.515625 -86.40625 C 42.566406 -86.40625 38.804688 -85.710938 35.234375 -84.328125 C 31.671875 -82.941406 28.398438 -80.988281 25.421875 -78.46875 C 22.441406 -75.957031 19.847656 -72.992188 17.640625 -69.578125 C 15.441406 -66.160156 13.742188 -62.40625 12.546875 -58.3125 C 11.359375 -54.21875 10.765625 -49.90625 10.765625 -45.375 C 10.765625 -40.84375 11.359375 -36.53125 12.546875 -32.4375 C 13.742188 -28.351562 15.441406 -24.597656 17.640625 -21.171875 C 19.847656 -17.753906 22.441406 -14.796875 25.421875 -12.296875 C 28.398438 -9.804688 31.671875 -7.867188 35.234375 -6.484375 C 38.804688 -5.097656 42.566406 -4.40625 46.515625 -4.40625 C 50.453125 -4.40625 54.003906 -4.882812 57.171875 -5.84375 C 60.335938 -6.8125 63.140625 -8.050781 65.578125 -9.5625 C 68.015625 -11.070312 70.082031 -12.644531 71.78125 -14.28125 C 73.476562 -15.914062 74.835938 -17.414062 75.859375 -18.78125 C 76.890625 -20.144531 77.570312 -21.164062 77.90625 -21.84375 Z M 77.90625 -21.84375 "/></g></g><g transform="translate(150.608174, 131.949682)"><g><path d="M 43.734375 -44.6875 C 43.734375 -44.6875 43.597656 -44.96875 43.328125 -45.53125 C 43.054688 -46.101562 42.5 -46.816406 41.65625 -47.671875 C 40.820312 -48.535156 39.597656 -49.382812 37.984375 -50.21875 C 36.367188 -51.0625 34.25 -51.765625 31.625 -52.328125 C 29 -52.898438 25.71875 -53.1875 21.78125 -53.1875 L 15.171875 -53.109375 L 15.171875 -9.625 C 15.171875 -8.789062 15.242188 -7.929688 15.390625 -7.046875 C 15.535156 -6.171875 15.898438 -5.425781 16.484375 -4.8125 C 17.078125 -4.207031 18.003906 -3.90625 19.265625 -3.90625 C 19.265625 -3.90625 19.867188 -3.90625 21.078125 -3.90625 C 22.296875 -3.90625 24.414062 -3.90625 27.4375 -3.90625 C 30.457031 -3.90625 34.695312 -3.90625 40.15625 -3.90625 C 44.769531 -3.90625 48.617188 -4.1875 51.703125 -4.75 C 54.785156 -5.3125 57.28125 -6.015625 59.1875 -6.859375 C 61.09375 -7.703125 62.53125 -8.550781 63.5 -9.40625 C 64.46875 -10.269531 65.117188 -10.984375 65.453125 -11.546875 C 65.785156 -12.109375 65.953125 -12.390625 65.953125 -12.390625 L 65.953125 0 L 2.578125 0 C 2.578125 0 2.816406 -0.09375 3.296875 -0.28125 C 3.785156 -0.46875 4.34375 -0.863281 4.96875 -1.46875 C 5.601562 -2.082031 6.160156 -3.039062 6.640625 -4.34375 C 7.117188 -5.644531 7.359375 -7.40625 7.359375 -9.625 L 7.359375 -80.625 C 7.359375 -82.84375 7.117188 -84.59375 6.640625 -85.875 C 6.160156 -87.15625 5.601562 -88.109375 4.96875 -88.734375 C 4.34375 -89.367188 3.785156 -89.78125 3.296875 -89.96875 C 2.816406 -90.15625 2.578125 -90.25 2.578125 -90.25 L 65.953125 -90.1875 L 65.953125 -77.78125 C 65.953125 -77.78125 65.785156 -78.0625 65.453125 -78.625 C 65.117188 -79.195312 64.46875 -79.910156 63.5 -80.765625 C 62.53125 -81.628906 61.09375 -82.476562 59.1875 -83.3125 C 57.28125 -84.15625 54.785156 -84.859375 51.703125 -85.421875 C 48.617188 -85.992188 44.769531 -86.28125 40.15625 -86.28125 C 34.695312 -86.28125 30.457031 -86.28125 27.4375 -86.28125 C 24.414062 -86.28125 22.296875 -86.28125 21.078125 -86.28125 C 19.867188 -86.28125 19.265625 -86.28125 19.265625 -86.28125 C 17.878906 -86.28125 16.898438 -85.972656 16.328125 -85.359375 C 15.765625 -84.753906 15.429688 -84.007812 15.328125 -83.125 C 15.222656 -82.25 15.171875 -81.394531 15.171875 -80.5625 L 15.171875 -55.125 L 21.78125 -55.125 C 25.71875 -55.125 29 -55.40625 31.625 -55.96875 C 34.25 -56.539062 36.367188 -57.253906 37.984375 -58.109375 C 39.597656 -58.972656 40.820312 -59.820312 41.65625 -60.65625 C 42.5 -61.5 43.054688 -62.203125 43.328125 -62.765625 C 43.597656 -63.335938 43.734375 -63.625 43.734375 -63.625 Z M 43.734375 -44.6875 "/></g></g><g transform="translate(219.209988, 131.949682)"><g><path d="M 44.375 -90.1875 C 49.488281 -90.1875 54.25 -89.554688 58.65625 -88.296875 C 63.0625 -87.035156 66.921875 -85.1875 70.234375 -82.75 C 73.546875 -80.320312 76.132812 -77.320312 78 -73.75 C 79.875 -70.1875 80.8125 -66.097656 80.8125 -61.484375 C 80.8125 -58.378906 80.316406 -55.398438 79.328125 -52.546875 C 78.335938 -49.691406 76.675781 -47.066406 74.34375 -44.671875 C 72.019531 -42.285156 68.863281 -40.210938 64.875 -38.453125 C 60.894531 -36.691406 55.914062 -35.316406 49.9375 -34.328125 C 43.957031 -33.347656 36.816406 -32.859375 28.515625 -32.859375 L 15.171875 -32.859375 L 15.171875 -9.625 C 15.171875 -7.363281 15.421875 -5.59375 15.921875 -4.3125 C 16.421875 -3.03125 16.984375 -2.070312 17.609375 -1.4375 C 18.242188 -0.8125 18.800781 -0.414062 19.28125 -0.25 C 19.769531 -0.0820312 20.015625 0 20.015625 0 L 2.578125 0 C 2.578125 0 2.816406 -0.09375 3.296875 -0.28125 C 3.785156 -0.46875 4.351562 -0.863281 5 -1.46875 C 5.65625 -2.082031 6.222656 -3.039062 6.703125 -4.34375 C 7.179688 -5.644531 7.421875 -7.40625 7.421875 -9.625 L 7.421875 -80.625 C 7.421875 -82.84375 7.179688 -84.59375 6.703125 -85.875 C 6.222656 -87.15625 5.65625 -88.109375 5 -88.734375 C 4.351562 -89.367188 3.785156 -89.78125 3.296875 -89.96875 C 2.816406 -90.15625 2.578125 -90.25 2.578125 -90.25 Z M 28.515625 -36.3125 C 36.734375 -36.394531 43.640625 -37.117188 49.234375 -38.484375 C 54.835938 -39.847656 59.335938 -41.691406 62.734375 -44.015625 C 66.140625 -46.347656 68.597656 -49.046875 70.109375 -52.109375 C 71.617188 -55.171875 72.375 -58.421875 72.375 -61.859375 C 72.375 -65.390625 71.679688 -68.644531 70.296875 -71.625 C 68.910156 -74.601562 66.945312 -77.179688 64.40625 -79.359375 C 61.875 -81.546875 58.90625 -83.242188 55.5 -84.453125 C 52.101562 -85.671875 48.394531 -86.28125 44.375 -86.28125 L 18.5 -86.15625 C 17.5 -86.15625 16.753906 -85.859375 16.265625 -85.265625 C 15.785156 -84.679688 15.484375 -83.957031 15.359375 -83.09375 C 15.234375 -82.238281 15.171875 -81.394531 15.171875 -80.5625 L 15.171875 -36.3125 Z M 28.515625 -36.3125 "/></g></g></g><g fill="#F3EFE7" fill-opacity="1"><g transform="translate(300.713979, 131.949682)"><g><path d="M 2.578125 -90.1875 L 70.921875 -90.1875 L 70.921875 -75.515625 C 70.921875 -75.515625 70.753906 -75.878906 70.421875 -76.609375 C 70.085938 -77.347656 69.476562 -78.253906 68.59375 -79.328125 C 67.71875 -80.398438 66.460938 -81.457031 64.828125 -82.5 C 63.191406 -83.550781 61.082031 -84.441406 58.5 -85.171875 C 55.914062 -85.910156 52.757812 -86.28125 49.03125 -86.28125 L 41.46875 -86.28125 C 41.21875 -85.613281 41.007812 -84.804688 40.84375 -83.859375 C 40.675781 -82.910156 40.59375 -81.8125 40.59375 -80.5625 L 40.59375 -9.625 C 40.59375 -7.363281 40.832031 -5.59375 41.3125 -4.3125 C 41.800781 -3.03125 42.367188 -2.070312 43.015625 -1.4375 C 43.660156 -0.8125 44.222656 -0.414062 44.703125 -0.25 C 45.191406 -0.0820312 45.4375 0 45.4375 0 L 28 0 C 28 0 28.238281 -0.09375 28.71875 -0.28125 C 29.207031 -0.46875 29.765625 -0.863281 30.390625 -1.46875 C 31.023438 -2.082031 31.582031 -3.039062 32.0625 -4.34375 C 32.550781 -5.644531 32.796875 -7.40625 32.796875 -9.625 L 32.796875 -80.625 C 32.796875 -81.832031 32.707031 -82.910156 32.53125 -83.859375 C 32.363281 -84.804688 32.15625 -85.613281 31.90625 -86.28125 L 24.484375 -86.28125 C 20.742188 -86.28125 17.59375 -85.910156 15.03125 -85.171875 C 12.476562 -84.441406 10.382812 -83.550781 8.75 -82.5 C 7.113281 -81.457031 5.84375 -80.398438 4.9375 -79.328125 C 4.039062 -78.253906 3.421875 -77.347656 3.078125 -76.609375 C 2.742188 -75.878906 2.578125 -75.515625 2.578125 -75.515625 Z M 2.578125 -90.1875 "/></g></g><g transform="translate(374.287851, 131.949682)"><g><path d="M 2.578125 -90.25 L 20.015625 -90.25 C 20.015625 -90.25 19.769531 -90.164062 19.28125 -90 C 18.800781 -89.832031 18.242188 -89.429688 17.609375 -88.796875 C 16.984375 -88.171875 16.421875 -87.207031 15.921875 -85.90625 C 15.421875 -84.601562 15.171875 -82.820312 15.171875 -80.5625 L 15.171875 -9.625 C 15.171875 -7.363281 15.421875 -5.59375 15.921875 -4.3125 C 16.421875 -3.03125 16.984375 -2.070312 17.609375 -1.4375 C 18.242188 -0.8125 18.800781 -0.414062 19.28125 -0.25 C 19.769531 -0.0820312 20.015625 0 20.015625 0 L 2.578125 0 C 2.578125 0 2.816406 -0.09375 3.296875 -0.28125 C 3.785156 -0.46875 4.34375 -0.863281 4.96875 -1.46875 C 5.601562 -2.082031 6.160156 -3.039062 6.640625 -4.34375 C 7.117188 -5.644531 7.359375 -7.40625 7.359375 -9.625 L 7.359375 -80.625 C 7.359375 -82.84375 7.117188 -84.59375 6.640625 -85.875 C 6.160156 -87.15625 5.601562 -88.109375 4.96875 -88.734375 C 4.34375 -89.367188 3.785156 -89.78125 3.296875 -89.96875 C 2.816406 -90.15625 2.578125 -90.25 2.578125 -90.25 Z M 2.578125 -90.25 "/></g></g><g transform="translate(396.819457, 131.949682)"><g><path d="M 47.078125 -90.25 C 51.984375 -90.25 56.660156 -89.492188 61.109375 -87.984375 C 65.554688 -86.472656 69.632812 -84.34375 73.34375 -81.59375 C 77.0625 -78.84375 80.285156 -75.585938 83.015625 -71.828125 C 85.742188 -68.078125 87.847656 -63.957031 89.328125 -59.46875 C 90.816406 -54.976562 91.5625 -50.238281 91.5625 -45.25 C 91.5625 -40.300781 90.816406 -35.582031 89.328125 -31.09375 C 87.847656 -26.601562 85.742188 -22.476562 83.015625 -18.71875 C 80.285156 -14.96875 77.0625 -11.707031 73.34375 -8.9375 C 69.632812 -6.164062 65.554688 -4.023438 61.109375 -2.515625 C 56.660156 -1.003906 51.984375 -0.25 47.078125 -0.25 C 42.171875 -0.25 37.492188 -1.003906 33.046875 -2.515625 C 28.597656 -4.023438 24.515625 -6.164062 20.796875 -8.9375 C 17.085938 -11.707031 13.867188 -14.96875 11.140625 -18.71875 C 8.410156 -22.476562 6.300781 -26.601562 4.8125 -31.09375 C 3.320312 -35.582031 2.578125 -40.300781 2.578125 -45.25 C 2.578125 -50.238281 3.320312 -54.976562 4.8125 -59.46875 C 6.300781 -63.957031 8.410156 -68.078125 11.140625 -71.828125 C 13.867188 -75.585938 17.085938 -78.84375 20.796875 -81.59375 C 24.515625 -84.34375 28.597656 -86.472656 33.046875 -87.984375 C 37.492188 -89.492188 42.171875 -90.25 47.078125 -90.25 Z M 47.078125 -3.96875 C 51.097656 -3.96875 54.929688 -4.660156 58.578125 -6.046875 C 62.234375 -7.429688 65.582031 -9.378906 68.625 -11.890625 C 71.664062 -14.410156 74.296875 -17.390625 76.515625 -20.828125 C 78.742188 -24.265625 80.476562 -28.039062 81.71875 -32.15625 C 82.957031 -36.269531 83.578125 -40.59375 83.578125 -45.125 C 83.578125 -49.65625 82.957031 -53.984375 81.71875 -58.109375 C 80.476562 -62.242188 78.742188 -66.019531 76.515625 -69.4375 C 74.296875 -72.863281 71.664062 -75.84375 68.625 -78.375 C 65.582031 -80.914062 62.234375 -82.878906 58.578125 -84.265625 C 54.929688 -85.648438 51.097656 -86.34375 47.078125 -86.34375 C 43.046875 -86.34375 39.203125 -85.648438 35.546875 -84.265625 C 31.898438 -82.878906 28.554688 -80.914062 25.515625 -78.375 C 22.472656 -75.84375 19.835938 -72.863281 17.609375 -69.4375 C 15.390625 -66.019531 13.660156 -62.242188 12.421875 -58.109375 C 11.191406 -53.984375 10.578125 -49.65625 10.578125 -45.125 C 10.578125 -40.59375 11.191406 -36.269531 12.421875 -32.15625 C 13.660156 -28.039062 15.390625 -24.265625 17.609375 -20.828125 C 19.835938 -17.390625 22.472656 -14.410156 25.515625 -11.890625 C 28.554688 -9.378906 31.898438 -7.429688 35.546875 -6.046875 C 39.203125 -4.660156 43.046875 -3.96875 47.078125 -3.96875 Z M 47.078125 -3.96875 "/></g></g><g transform="translate(491.036811, 131.949682)"><g><path d="M 21.84375 -90.25 C 21.84375 -90.25 21.640625 -90.164062 21.234375 -90 C 20.835938 -89.832031 20.492188 -89.429688 20.203125 -88.796875 C 19.910156 -88.171875 19.878906 -87.207031 20.109375 -85.90625 C 20.335938 -84.601562 21.082031 -82.820312 22.34375 -80.5625 L 59.15625 -13.96875 L 59.15625 -80.625 C 59.15625 -82.84375 58.914062 -84.59375 58.4375 -85.875 C 57.957031 -87.15625 57.390625 -88.109375 56.734375 -88.734375 C 56.085938 -89.367188 55.519531 -89.78125 55.03125 -89.96875 C 54.550781 -90.15625 54.3125 -90.25 54.3125 -90.25 L 67.59375 -90.25 C 67.59375 -90.25 67.347656 -90.164062 66.859375 -90 C 66.378906 -89.832031 65.820312 -89.429688 65.1875 -88.796875 C 64.5625 -88.171875 64 -87.207031 63.5 -85.90625 C 63 -84.601562 62.75 -82.820312 62.75 -80.5625 L 62.75 0 L 59.09375 0 L 14.53125 -80.625 C 13.53125 -82.382812 12.546875 -83.875 11.578125 -85.09375 C 11.410156 -84.5 11.273438 -83.820312 11.171875 -83.0625 C 11.066406 -82.3125 11.015625 -81.476562 11.015625 -80.5625 L 11.015625 -9.625 C 11.015625 -7.363281 11.265625 -5.59375 11.765625 -4.3125 C 12.273438 -3.03125 12.84375 -2.070312 13.46875 -1.4375 C 14.09375 -0.8125 14.644531 -0.414062 15.125 -0.25 C 15.613281 -0.0820312 15.859375 0 15.859375 0 L 2.578125 0 C 2.578125 0 2.816406 -0.09375 3.296875 -0.28125 C 3.785156 -0.46875 4.34375 -0.863281 4.96875 -1.46875 C 5.601562 -2.082031 6.160156 -3.039062 6.640625 -4.34375 C 7.117188 -5.644531 7.359375 -7.40625 7.359375 -9.625 L 7.359375 -80.625 C 7.359375 -82.84375 7.117188 -84.59375 6.640625 -85.875 C 6.160156 -87.15625 5.601562 -88.109375 4.96875 -88.734375 C 4.34375 -89.367188 3.785156 -89.78125 3.296875 -89.96875 C 2.816406 -90.15625 2.578125 -90.25 2.578125 -90.25 Z M 21.84375 -90.25 "/></g></g></g></g></g></g><g clip-path="url(#1676095c30)"><g transform="matrix(1, 0, 0, 1, 0, -0.000000000000113687)"><g clip-path="url(#c4aea2359d)"><g fill="#F3EFE7" fill-opacity="1"><g transform="translate(36.011434, 411.392813)"><g><path d="M 21.796875 153.125 L 18.546875 150.875 C 28.734375 129.15625 41.640625 110.609375 57.265625 95.234375 C 72.890625 79.867188 90.222656 67.128906 109.265625 57.015625 C 128.316406 46.910156 147.953125 39.097656 168.171875 33.578125 C 167.003906 29.066406 166.207031 24.515625 165.78125 19.921875 C 165.363281 15.328125 165.15625 10.691406 165.15625 6.015625 C 165.15625 -3.003906 165.78125 -11.691406 167.03125 -20.046875 C 168.289062 -28.398438 169.671875 -36.128906 171.171875 -43.234375 C 172.679688 -50.335938 173.851562 -56.394531 174.6875 -61.40625 C 171.007812 -62.738281 168.375 -64.363281 166.78125 -66.28125 C 165.195312 -68.207031 164.40625 -70.085938 164.40625 -71.921875 C 164.40625 -74.265625 165.320312 -76.226562 167.15625 -77.8125 C 169 -79.40625 171.175781 -80.203125 173.6875 -80.203125 C 179.195312 -80.203125 182.992188 -78.488281 185.078125 -75.0625 C 187.171875 -71.632812 188.21875 -67 188.21875 -61.15625 C 189.550781 -60.988281 190.96875 -60.863281 192.46875 -60.78125 C 193.976562 -60.695312 195.566406 -60.65625 197.234375 -60.65625 C 209.429688 -60.65625 221.796875 -62.703125 234.328125 -66.796875 C 246.859375 -70.890625 258.804688 -76.398438 270.171875 -83.328125 C 281.535156 -90.265625 291.6875 -97.910156 300.625 -106.265625 C 309.5625 -114.617188 316.617188 -123.097656 321.796875 -131.703125 C 326.984375 -140.304688 329.578125 -148.367188 329.578125 -155.890625 C 329.578125 -163.578125 327.234375 -169.800781 322.546875 -174.5625 C 317.867188 -179.320312 311.4375 -182.828125 303.25 -185.078125 C 295.0625 -187.335938 285.707031 -188.46875 275.1875 -188.46875 C 264.820312 -188.46875 253.832031 -187.421875 242.21875 -185.328125 C 230.613281 -183.242188 218.878906 -180.28125 207.015625 -176.4375 C 195.148438 -172.59375 183.785156 -167.957031 172.921875 -162.53125 C 162.066406 -157.101562 152.210938 -150.960938 143.359375 -144.109375 C 134.503906 -137.253906 127.234375 -129.898438 121.546875 -122.046875 L 113.53125 -127.8125 C 123.726562 -137.007812 135.507812 -145.488281 148.875 -153.25 C 162.238281 -161.019531 176.351562 -167.785156 191.21875 -173.546875 C 206.09375 -179.316406 220.960938 -183.789062 235.828125 -186.96875 C 250.703125 -190.144531 264.65625 -191.734375 277.6875 -191.734375 C 289.882812 -191.734375 300.742188 -190.1875 310.265625 -187.09375 C 319.796875 -184 327.316406 -179.066406 332.828125 -172.296875 C 338.335938 -165.535156 341.09375 -156.722656 341.09375 -145.859375 C 341.09375 -136.335938 337.957031 -126.4375 331.6875 -116.15625 C 325.425781 -105.882812 316.238281 -96.363281 304.125 -87.59375 C 292.019531 -78.820312 277.191406 -71.71875 259.640625 -66.28125 C 242.097656 -60.851562 222.050781 -58.140625 199.5 -58.140625 C 197.320312 -58.140625 195.3125 -58.179688 193.46875 -58.265625 C 191.632812 -58.347656 189.882812 -58.472656 188.21875 -58.640625 C 188.050781 -52.628906 187.253906 -45.695312 185.828125 -37.84375 C 184.410156 -29.988281 183.078125 -21.675781 181.828125 -12.90625 C 180.578125 -4.132812 179.953125 4.757812 179.953125 13.78125 C 179.953125 16.457031 180.035156 19.171875 180.203125 21.921875 C 180.367188 24.679688 180.617188 27.484375 180.953125 30.328125 C 193.316406 27.484375 205.640625 25.4375 217.921875 24.1875 C 230.203125 22.9375 242.191406 22.3125 253.890625 22.3125 C 270.597656 22.3125 286.21875 23.519531 300.75 25.9375 C 315.28125 28.363281 328.0625 31.707031 339.09375 35.96875 C 350.125 40.226562 358.726562 45.195312 364.90625 50.875 C 371.09375 56.550781 374.1875 62.648438 374.1875 69.171875 C 374.1875 76.359375 370.882812 82.5 364.28125 87.59375 C 357.6875 92.6875 348.875 96.613281 337.84375 99.375 C 326.8125 102.132812 314.613281 103.515625 301.25 103.515625 C 275.6875 103.515625 254.425781 101.171875 237.46875 96.484375 C 220.507812 91.804688 207.015625 85.5 196.984375 77.5625 C 186.960938 69.625 179.445312 60.726562 174.4375 50.875 C 154.550781 56.382812 135.082031 63.734375 116.03125 72.921875 C 96.988281 82.117188 79.363281 93.316406 63.15625 106.515625 C 46.945312 119.710938 33.160156 135.25 21.796875 153.125 Z M 43.359375 -107.765625 L 43.609375 -110.53125 C 55.972656 -114.03125 67.957031 -119.082031 79.5625 -125.6875 C 91.175781 -132.289062 101.660156 -139.8125 111.015625 -148.25 C 120.378906 -156.6875 127.816406 -165.332031 133.328125 -174.1875 L 136.09375 -173.9375 C 131.582031 -163.070312 127.15625 -153.753906 122.8125 -145.984375 C 118.46875 -138.210938 113.160156 -131.78125 106.890625 -126.6875 C 100.628906 -121.59375 92.484375 -117.539062 82.453125 -114.53125 C 72.429688 -111.53125 59.398438 -109.273438 43.359375 -107.765625 Z M 21.796875 7.015625 C 14.117188 7.015625 5.726562 6.679688 -3.375 6.015625 C -12.488281 5.347656 -22.222656 4.34375 -32.578125 3 L -30.078125 0 C -27.734375 0.164062 -24.429688 0.414062 -20.171875 0.75 C -15.910156 1.082031 -11.441406 1.25 -6.765625 1.25 C 10.273438 1.25 25.8125 -1.296875 39.84375 -6.390625 C 53.882812 -11.484375 67.046875 -18.207031 79.328125 -26.5625 C 91.609375 -34.914062 103.425781 -44.1875 114.78125 -54.375 C 126.144531 -64.570312 137.59375 -74.804688 149.125 -85.078125 C 160.65625 -95.359375 172.644531 -104.96875 185.09375 -113.90625 C 197.539062 -122.84375 211.03125 -130.234375 225.5625 -136.078125 C 240.09375 -141.929688 256.132812 -145.359375 273.6875 -146.359375 L 273.1875 -141.359375 C 256.476562 -140.847656 241.394531 -137.878906 227.9375 -132.453125 C 214.488281 -127.023438 202.414062 -120.09375 191.71875 -111.65625 C 181.03125 -103.21875 171.34375 -94.023438 162.65625 -84.078125 C 153.96875 -74.140625 146.03125 -64.410156 138.84375 -54.890625 C 130.65625 -44.191406 122.632812 -34.914062 114.78125 -27.0625 C 106.925781 -19.207031 98.53125 -12.773438 89.59375 -7.765625 C 80.65625 -2.753906 70.710938 0.957031 59.765625 3.375 C 48.828125 5.800781 36.171875 7.015625 21.796875 7.015625 Z M 175.1875 -63.90625 C 175.351562 -64.90625 175.476562 -65.90625 175.5625 -66.90625 C 175.644531 -67.914062 175.6875 -68.753906 175.6875 -69.421875 C 175.6875 -73.265625 174.601562 -75.1875 172.4375 -75.1875 C 169.59375 -75.1875 168.171875 -73.847656 168.171875 -71.171875 C 168.171875 -70.003906 168.671875 -68.75 169.671875 -67.40625 C 170.671875 -66.070312 172.507812 -64.90625 175.1875 -63.90625 Z M 301.25 100.25 C 313.78125 100.25 325.140625 98.992188 335.328125 96.484375 C 345.523438 93.984375 353.628906 90.351562 359.640625 85.59375 C 365.660156 80.832031 368.671875 75.109375 368.671875 68.421875 C 368.671875 61.898438 364.742188 56.257812 356.890625 51.5 C 349.035156 46.738281 338.210938 43.0625 324.421875 40.46875 C 310.640625 37.882812 294.976562 36.59375 277.4375 36.59375 C 263.40625 36.59375 248.578125 37.507812 232.953125 39.34375 C 217.328125 41.1875 201.5 44.113281 185.46875 48.125 C 189.132812 57.8125 195.3125 66.625 204 74.5625 C 212.695312 82.5 224.894531 88.765625 240.59375 93.359375 C 256.300781 97.953125 276.519531 100.25 301.25 100.25 Z M 301.25 100.25 "/></g></g></g></g></g></g></g></g></svg>