<svg xmlns="http://www.w3.org/2000/svg" xmlns:xlink="http://www.w3.org/1999/xlink" width="1536" zoomAndPan="magnify" viewBox="0 0 1152 1439.999935" height="1920" preserveAspectRatio="xMidYMid meet" version="1.0"><defs><g/><clipPath id="c06988f614"><path d="M 265 270 L 647.359375 270 L 647.359375 481 L 265 481 Z M 265 270 " clip-rule="nonzero"/></clipPath><clipPath id="0af24b1154"><rect x="0" width="383" y="0" height="211"/></clipPath><clipPath id="bbaf08ade7"><path d="M 0.320312 0.519531 L 377 0.519531 L 377 706.839844 L 0.320312 706.839844 Z M 0.320312 0.519531 " clip-rule="nonzero"/></clipPath><clipPath id="ef13608d35"><rect x="0" width="377" y="0" height="707"/></clipPath><clipPath id="b69ea60949"><rect x="0" width="648" y="0" height="707"/></clipPath></defs><g transform="matrix(1, 0, 0, 1, 268, 365)"><g clip-path="url(#b69ea60949)"><g clip-path="url(#c06988f614)"><g transform="matrix(1, 0, 0, 1, 265, 270)"><g clip-path="url(#0af24b1154)"><g fill="#F3EFE7" fill-opacity="1"><g transform="translate(3.62128, 131.949741)"><g><path d="M 72.4375 0 C 72.4375 0 72.644531 -0.09375 73.0625 -0.28125 C 73.488281 -0.46875 73.890625 -0.863281 74.265625 -1.46875 C 74.640625 -2.082031 74.804688 -3.039062 74.765625 -4.34375 C 74.722656 -5.644531 74.257812 -7.40625 73.375 -9.625 L 63.5625 -34.234375 L 24.734375 -34.234375 L 14.921875 -9.625 C 14.035156 -7.40625 13.570312 -5.644531 13.53125 -4.34375 C 13.488281 -3.039062 13.65625 -2.082031 14.03125 -1.46875 C 14.40625 -0.863281 14.800781 -0.46875 15.21875 -0.28125 C 15.644531 -0.09375 15.859375 0 15.859375 0 L 2.578125 0 C 2.578125 0 2.847656 -0.0820312 3.390625 -0.25 C 3.941406 -0.414062 4.65625 -0.8125 5.53125 -1.4375 C 6.414062 -2.070312 7.359375 -3.03125 8.359375 -4.3125 C 9.367188 -5.59375 10.335938 -7.363281 11.265625 -9.625 L 43.359375 -90.25 L 49.15625 -90.25 L 81.1875 -9.625 C 82.113281 -7.363281 83.078125 -5.59375 84.078125 -4.3125 C 85.085938 -3.03125 86.03125 -2.070312 86.90625 -1.4375 C 87.789062 -0.8125 88.503906 -0.414062 89.046875 -0.25 C 89.597656 -0.0820312 89.875 0 89.875 0 Z M 25.671875 -36.5625 L 62.625 -36.5625 C 62.625 -36.5625 62.367188 -37.203125 61.859375 -38.484375 C 61.359375 -39.765625 60.664062 -41.492188 59.78125 -43.671875 C 58.90625 -45.859375 57.921875 -48.3125 56.828125 -51.03125 C 55.734375 -53.757812 54.609375 -56.570312 53.453125 -59.46875 C 52.304688 -62.363281 51.175781 -65.1875 50.0625 -67.9375 C 48.945312 -70.6875 47.945312 -73.171875 47.0625 -75.390625 C 46.1875 -77.617188 45.476562 -79.40625 44.9375 -80.75 C 44.394531 -82.09375 44.097656 -82.804688 44.046875 -82.890625 C 44.003906 -82.804688 43.722656 -82.09375 43.203125 -80.75 C 42.679688 -79.40625 41.976562 -77.617188 41.09375 -75.390625 C 40.21875 -73.171875 39.234375 -70.6875 38.140625 -67.9375 C 37.046875 -65.1875 35.921875 -62.363281 34.765625 -59.46875 C 33.617188 -56.570312 32.507812 -53.757812 31.4375 -51.03125 C 30.363281 -48.3125 29.382812 -45.859375 28.5 -43.671875 C 27.625 -41.492188 26.929688 -39.765625 26.421875 -38.484375 C 25.921875 -37.203125 25.671875 -36.5625 25.671875 -36.5625 Z M 25.671875 -36.5625 "/></g></g><g transform="translate(96.013449, 131.949741)"><g><path d="M 65.953125 0 L 2.578125 0 C 2.578125 0 2.816406 -0.09375 3.296875 -0.28125 C 3.785156 -0.46875 4.34375 -0.863281 4.96875 -1.46875 C 5.601562 -2.082031 6.160156 -3.039062 6.640625 -4.34375 C 7.117188 -5.644531 7.359375 -7.40625 7.359375 -9.625 L 7.359375 -80.625 C 7.359375 -82.84375 7.117188 -84.59375 6.640625 -85.875 C 6.160156 -87.15625 5.601562 -88.109375 4.96875 -88.734375 C 4.34375 -89.367188 3.785156 -89.78125 3.296875 -89.96875 C 2.816406 -90.15625 2.578125 -90.25 2.578125 -90.25 L 20.015625 -90.25 C 20.015625 -90.25 19.769531 -90.164062 19.28125 -90 C 18.800781 -89.832031 18.242188 -89.429688 17.609375 -88.796875 C 16.984375 -88.171875 16.421875 -87.207031 15.921875 -85.90625 C 15.421875 -84.601562 15.171875 -82.820312 15.171875 -80.5625 L 15.171875 -9.625 C 15.171875 -8.789062 15.210938 -7.929688 15.296875 -7.046875 C 15.378906 -6.171875 15.609375 -5.425781 15.984375 -4.8125 C 16.359375 -4.207031 16.96875 -3.90625 17.8125 -3.90625 C 17.8125 -3.90625 18.546875 -3.90625 20.015625 -3.90625 C 21.484375 -3.90625 23.84375 -3.90625 27.09375 -3.90625 C 30.34375 -3.90625 34.695312 -3.90625 40.15625 -3.90625 C 44.769531 -3.90625 48.617188 -4.1875 51.703125 -4.75 C 54.785156 -5.3125 57.28125 -6.015625 59.1875 -6.859375 C 61.09375 -7.703125 62.53125 -8.550781 63.5 -9.40625 C 64.46875 -10.269531 65.117188 -10.984375 65.453125 -11.546875 C 65.785156 -12.109375 65.953125 -12.390625 65.953125 -12.390625 Z M 65.953125 0 "/></g></g><g transform="translate(164.615264, 131.949741)"><g><path d="M 2.578125 -90.25 L 20.015625 -90.25 C 20.015625 -90.25 19.769531 -90.164062 19.28125 -90 C 18.800781 -89.832031 18.242188 -89.429688 17.609375 -88.796875 C 16.984375 -88.171875 16.421875 -87.207031 15.921875 -85.90625 C 15.421875 -84.601562 15.171875 -82.820312 15.171875 -80.5625 L 15.171875 -9.625 C 15.171875 -7.363281 15.421875 -5.59375 15.921875 -4.3125 C 16.421875 -3.03125 16.984375 -2.070312 17.609375 -1.4375 C 18.242188 -0.8125 18.800781 -0.414062 19.28125 -0.25 C 19.769531 -0.0820312 20.015625 0 20.015625 0 L 2.578125 0 C 2.578125 0 2.816406 -0.09375 3.296875 -0.28125 C 3.785156 -0.46875 4.34375 -0.863281 4.96875 -1.46875 C 5.601562 -2.082031 6.160156 -3.039062 6.640625 -4.34375 C 7.117188 -5.644531 7.359375 -7.40625 7.359375 -9.625 L 7.359375 -80.625 C 7.359375 -82.84375 7.117188 -84.59375 6.640625 -85.875 C 6.160156 -87.15625 5.601562 -88.109375 4.96875 -88.734375 C 4.34375 -89.367188 3.785156 -89.78125 3.296875 -89.96875 C 2.816406 -90.15625 2.578125 -90.25 2.578125 -90.25 Z M 2.578125 -90.25 "/></g></g><g transform="translate(187.146869, 131.949741)"><g><path d="M 98.109375 -90.25 C 98.109375 -90.25 97.867188 -90.164062 97.390625 -90 C 96.910156 -89.832031 96.351562 -89.429688 95.71875 -88.796875 C 95.09375 -88.171875 94.535156 -87.207031 94.046875 -85.90625 C 93.566406 -84.601562 93.328125 -82.820312 93.328125 -80.5625 L 93.328125 -9.625 C 93.328125 -7.363281 93.566406 -5.59375 94.046875 -4.3125 C 94.535156 -3.03125 95.09375 -2.070312 95.71875 -1.4375 C 96.351562 -0.8125 96.910156 -0.414062 97.390625 -0.25 C 97.867188 -0.0820312 98.109375 0 98.109375 0 L 80.6875 0 C 80.6875 0 80.925781 -0.09375 81.40625 -0.28125 C 81.882812 -0.46875 82.445312 -0.863281 83.09375 -1.46875 C 83.75 -2.082031 84.316406 -3.039062 84.796875 -4.34375 C 85.285156 -5.644531 85.53125 -7.40625 85.53125 -9.625 L 85.53125 -78.421875 C 85.53125 -79.847656 85.414062 -81.070312 85.1875 -82.09375 C 84.957031 -83.125 84.671875 -83.992188 84.328125 -84.703125 C 83.953125 -84.242188 83.476562 -83.707031 82.90625 -83.09375 C 82.34375 -82.488281 81.679688 -81.492188 80.921875 -80.109375 C 80.171875 -78.734375 79.253906 -76.640625 78.171875 -73.828125 C 78.085938 -73.617188 77.988281 -73.363281 77.875 -73.0625 C 77.769531 -72.769531 77.5625 -72.222656 77.25 -71.421875 C 76.9375 -70.628906 76.453125 -69.394531 75.796875 -67.71875 C 75.148438 -66.039062 74.269531 -63.734375 73.15625 -60.796875 C 72.050781 -57.859375 70.625 -54.113281 68.875 -49.5625 C 67.132812 -45.007812 65.015625 -39.457031 62.515625 -32.90625 C 60.023438 -26.363281 57.0625 -18.601562 53.625 -9.625 C 52.78125 -7.445312 52.101562 -5.707031 51.59375 -4.40625 C 51.09375 -3.101562 50.632812 -2.132812 50.21875 -1.5 C 49.800781 -0.875 49.285156 -0.46875 48.671875 -0.28125 C 48.066406 -0.09375 47.238281 0 46.1875 0 C 46.1875 0 46.125 -0.1875 46 -0.5625 C 45.875 -0.945312 45.550781 -1.816406 45.03125 -3.171875 C 44.507812 -4.535156 43.679688 -6.6875 42.546875 -9.625 C 42.546875 -9.625 42.515625 -9.695312 42.453125 -9.84375 C 42.390625 -9.988281 42.21875 -10.425781 41.9375 -11.15625 C 41.664062 -11.894531 41.207031 -13.113281 40.5625 -14.8125 C 39.914062 -16.519531 39.015625 -18.882812 37.859375 -21.90625 C 36.703125 -24.925781 35.210938 -28.816406 33.390625 -33.578125 C 31.566406 -38.335938 29.351562 -44.144531 26.75 -51 C 24.144531 -57.863281 21.039062 -65.992188 17.4375 -75.390625 C 16.46875 -77.910156 15.476562 -79.875 14.46875 -81.28125 C 13.46875 -82.6875 12.671875 -83.742188 12.078125 -84.453125 C 11.785156 -83.742188 11.535156 -82.894531 11.328125 -81.90625 C 11.117188 -80.925781 11.015625 -79.765625 11.015625 -78.421875 L 11.015625 -9.625 C 11.015625 -7.363281 11.265625 -5.59375 11.765625 -4.3125 C 12.273438 -3.03125 12.84375 -2.070312 13.46875 -1.4375 C 14.09375 -0.8125 14.644531 -0.414062 15.125 -0.25 C 15.613281 -0.0820312 15.859375 0 15.859375 0 L 2.578125 0 C 2.578125 0 2.816406 -0.09375 3.296875 -0.28125 C 3.785156 -0.46875 4.34375 -0.863281 4.96875 -1.46875 C 5.601562 -2.082031 6.160156 -3.039062 6.640625 -4.34375 C 7.117188 -5.644531 7.359375 -7.40625 7.359375 -9.625 L 7.359375 -80.625 C 7.359375 -82.84375 7.117188 -84.59375 6.640625 -85.875 C 6.160156 -87.15625 5.601562 -88.109375 4.96875 -88.734375 C 4.34375 -89.367188 3.785156 -89.78125 3.296875 -89.96875 C 2.816406 -90.15625 2.578125 -90.25 2.578125 -90.25 L 24.359375 -90.25 C 24.359375 -90.25 24.144531 -90.164062 23.71875 -90 C 23.300781 -89.832031 22.894531 -89.429688 22.5 -88.796875 C 22.101562 -88.171875 21.914062 -87.207031 21.9375 -85.90625 C 21.957031 -84.601562 22.382812 -82.820312 23.21875 -80.5625 L 50.15625 -10.0625 L 77.09375 -80.5625 C 77.9375 -82.820312 78.367188 -84.601562 78.390625 -85.90625 C 78.410156 -87.207031 78.21875 -88.171875 77.8125 -88.796875 C 77.414062 -89.429688 77.007812 -89.832031 76.59375 -90 C 76.175781 -90.164062 75.96875 -90.25 75.96875 -90.25 Z M 98.109375 -90.25 "/></g></g><g transform="translate(287.783843, 131.949741)"><g><path d="M 72.4375 0 C 72.4375 0 72.644531 -0.09375 73.0625 -0.28125 C 73.488281 -0.46875 73.890625 -0.863281 74.265625 -1.46875 C 74.640625 -2.082031 74.804688 -3.039062 74.765625 -4.34375 C 74.722656 -5.644531 74.257812 -7.40625 73.375 -9.625 L 63.5625 -34.234375 L 24.734375 -34.234375 L 14.921875 -9.625 C 14.035156 -7.40625 13.570312 -5.644531 13.53125 -4.34375 C 13.488281 -3.039062 13.65625 -2.082031 14.03125 -1.46875 C 14.40625 -0.863281 14.800781 -0.46875 15.21875 -0.28125 C 15.644531 -0.09375 15.859375 0 15.859375 0 L 2.578125 0 C 2.578125 0 2.847656 -0.0820312 3.390625 -0.25 C 3.941406 -0.414062 4.65625 -0.8125 5.53125 -1.4375 C 6.414062 -2.070312 7.359375 -3.03125 8.359375 -4.3125 C 9.367188 -5.59375 10.335938 -7.363281 11.265625 -9.625 L 43.359375 -90.25 L 49.15625 -90.25 L 81.1875 -9.625 C 82.113281 -7.363281 83.078125 -5.59375 84.078125 -4.3125 C 85.085938 -3.03125 86.03125 -2.070312 86.90625 -1.4375 C 87.789062 -0.8125 88.503906 -0.414062 89.046875 -0.25 C 89.597656 -0.0820312 89.875 0 89.875 0 Z M 25.671875 -36.5625 L 62.625 -36.5625 C 62.625 -36.5625 62.367188 -37.203125 61.859375 -38.484375 C 61.359375 -39.765625 60.664062 -41.492188 59.78125 -43.671875 C 58.90625 -45.859375 57.921875 -48.3125 56.828125 -51.03125 C 55.734375 -53.757812 54.609375 -56.570312 53.453125 -59.46875 C 52.304688 -62.363281 51.175781 -65.1875 50.0625 -67.9375 C 48.945312 -70.6875 47.945312 -73.171875 47.0625 -75.390625 C 46.1875 -77.617188 45.476562 -79.40625 44.9375 -80.75 C 44.394531 -82.09375 44.097656 -82.804688 44.046875 -82.890625 C 44.003906 -82.804688 43.722656 -82.09375 43.203125 -80.75 C 42.679688 -79.40625 41.976562 -77.617188 41.09375 -75.390625 C 40.21875 -73.171875 39.234375 -70.6875 38.140625 -67.9375 C 37.046875 -65.1875 35.921875 -62.363281 34.765625 -59.46875 C 33.617188 -56.570312 32.507812 -53.757812 31.4375 -51.03125 C 30.363281 -48.3125 29.382812 -45.859375 28.5 -43.671875 C 27.625 -41.492188 26.929688 -39.765625 26.421875 -38.484375 C 25.921875 -37.203125 25.671875 -36.5625 25.671875 -36.5625 Z M 25.671875 -36.5625 "/></g></g></g></g></g></g><g clip-path="url(#bbaf08ade7)"><g transform="matrix(1, 0, 0, 1, 0, -0.000000000000113687)"><g clip-path="url(#ef13608d35)"><g fill="#F3EFE7" fill-opacity="1"><g transform="translate(116.127687, 411.391892)"><g><path d="M 15.53125 9.015625 C 11.351562 9.015625 8.347656 7.96875 6.515625 5.875 C 4.679688 3.789062 3.765625 1 3.765625 -2.5 C 3.765625 -9.851562 5.722656 -17.125 9.640625 -24.3125 C 13.566406 -31.5 18.789062 -38.722656 25.3125 -45.984375 C 31.832031 -53.253906 39.015625 -60.4375 46.859375 -67.53125 C 54.710938 -74.632812 62.523438 -81.78125 70.296875 -88.96875 C 78.066406 -96.15625 85.207031 -103.253906 91.71875 -110.265625 C 98.238281 -117.285156 103.460938 -124.304688 107.390625 -131.328125 C 111.316406 -138.347656 113.28125 -145.28125 113.28125 -152.125 C 113.28125 -164.15625 108.8125 -172.757812 99.875 -177.9375 C 90.9375 -183.125 79.53125 -185.71875 65.65625 -185.71875 C 54.800781 -185.71875 43.066406 -184.378906 30.453125 -181.703125 C 17.835938 -179.023438 5.054688 -175.304688 -7.890625 -170.546875 C -20.835938 -165.785156 -33.242188 -160.269531 -45.109375 -154 C -56.972656 -147.738281 -67.582031 -141.015625 -76.9375 -133.828125 C -86.300781 -126.648438 -93.695312 -119.257812 -99.125 -111.65625 C -104.550781 -104.050781 -107.265625 -96.570312 -107.265625 -89.21875 C -107.265625 -81.695312 -104.71875 -76.265625 -99.625 -72.921875 C -94.53125 -69.585938 -87.804688 -67.921875 -79.453125 -67.921875 C -70.929688 -67.921875 -61.15625 -69.460938 -50.125 -72.546875 C -39.09375 -75.640625 -27.644531 -80.023438 -15.78125 -85.703125 C -3.925781 -91.390625 7.640625 -98.078125 18.921875 -105.765625 C 30.203125 -113.453125 40.5625 -121.847656 50 -130.953125 C 59.4375 -140.054688 67.082031 -149.617188 72.9375 -159.640625 L 75.4375 -159.390625 C 70.925781 -147.023438 64.535156 -135.789062 56.265625 -125.6875 C 47.992188 -115.582031 38.507812 -106.644531 27.8125 -98.875 C 17.125 -91.101562 5.890625 -84.539062 -5.890625 -79.1875 C -17.671875 -73.84375 -29.28125 -69.789062 -40.71875 -67.03125 C -52.164062 -64.28125 -62.738281 -62.90625 -72.4375 -62.90625 C -84.289062 -62.90625 -94.019531 -65.078125 -101.625 -69.421875 C -109.226562 -73.765625 -113.03125 -80.28125 -113.03125 -88.96875 C -113.03125 -96.65625 -110.3125 -104.46875 -104.875 -112.40625 C -99.445312 -120.34375 -92.015625 -128.023438 -82.578125 -135.453125 C -73.140625 -142.890625 -62.40625 -149.867188 -50.375 -156.390625 C -38.34375 -162.910156 -25.726562 -168.59375 -12.53125 -173.4375 C 0.664062 -178.28125 13.78125 -182.078125 26.8125 -184.828125 C 39.84375 -187.585938 52.039062 -188.96875 63.40625 -188.96875 C 73.9375 -188.96875 83.253906 -187.628906 91.359375 -184.953125 C 99.460938 -182.285156 105.851562 -178.023438 110.53125 -172.171875 C 115.207031 -166.328125 117.546875 -158.644531 117.546875 -149.125 C 117.546875 -135.082031 115.625 -122.421875 111.78125 -111.140625 C 107.9375 -99.867188 102.835938 -89.765625 96.484375 -80.828125 C 90.140625 -71.890625 83.125 -63.953125 75.4375 -57.015625 C 67.75 -50.078125 60.101562 -43.851562 52.5 -38.34375 C 44.90625 -32.832031 37.929688 -27.90625 31.578125 -23.5625 C 25.234375 -19.21875 20.140625 -15.25 16.296875 -11.65625 C 12.453125 -8.0625 10.53125 -4.59375 10.53125 -1.25 C 10.53125 2.925781 12.867188 5.015625 17.546875 5.015625 C 24.554688 5.015625 32.53125 2.300781 41.46875 -3.125 C 50.414062 -8.5625 60.148438 -15.707031 70.671875 -24.5625 C 81.203125 -33.414062 92.3125 -43.1875 104 -53.875 C 115.695312 -64.570312 127.851562 -75.222656 140.46875 -85.828125 C 153.082031 -96.441406 165.863281 -106.175781 178.8125 -115.03125 C 191.769531 -123.882812 204.804688 -131.023438 217.921875 -136.453125 C 231.035156 -141.890625 243.941406 -144.609375 256.640625 -144.609375 L 254.890625 -138.09375 C 254.222656 -138.09375 253.507812 -138.132812 252.75 -138.21875 C 252 -138.300781 251.207031 -138.34375 250.375 -138.34375 C 238.34375 -138.34375 226.144531 -135.671875 213.78125 -130.328125 C 201.414062 -124.984375 189.09375 -117.921875 176.8125 -109.140625 C 164.53125 -100.367188 152.375 -90.757812 140.34375 -80.3125 C 128.320312 -69.875 116.585938 -59.429688 105.140625 -48.984375 C 93.691406 -38.546875 82.660156 -28.941406 72.046875 -20.171875 C 61.441406 -11.398438 51.375 -4.34375 41.84375 1 C 32.320312 6.34375 23.550781 9.015625 15.53125 9.015625 Z M 15.53125 9.015625 "/></g></g></g></g></g></g></g></g></svg>